<svg xmlns="http://www.w3.org/2000/svg" xmlns:xlink="http://www.w3.org/1999/xlink" viewBox="0 0 1996.15 2016"><defs><style>.cls-1{fill:#9fb6c8;}.cls-2{fill:#928a88;}.cls-3{fill:#f4dab9;}.cls-4{fill:#d2bdac;}.cls-5{fill:#416074;}.cls-6{fill:#090809;}.cls-7{fill:#251510;}.cls-8{fill:#e9b573;}.cls-9{fill:#848383;}.cls-10{fill:#a77b59;}.cls-11{fill:#261611;}.cls-12{fill:#0c0a0b;}.cls-13{fill:#f5e5d1;}.cls-14{fill:#558dd5;}.cls-15{fill:#e8ab1e;}.cls-16{fill:#fec003;}.cls-17{fill:#ec7e33;}.cls-18{fill:url(#radial-gradient);}</style><radialGradient id="radial-gradient" cx="1558.96" cy="1246.61" fx="1708.7368596960184" fy="1291.1011640984516" r="833.5" gradientTransform="matrix(1, 0.02, -0.02, 1.28, 29.58, -378.56)" gradientUnits="userSpaceOnUse"><stop offset="0" stop-color="#fff" stop-opacity="0.6"/><stop offset="0.22" stop-color="#fff" stop-opacity="0.5"/><stop offset="0.25" stop-color="#fff" stop-opacity="0.44"/><stop offset="0.33" stop-color="#fff" stop-opacity="0.31"/><stop offset="0.41" stop-color="#fff" stop-opacity="0.2"/><stop offset="0.49" stop-color="#fff" stop-opacity="0.11"/><stop offset="0.59" stop-color="#fff" stop-opacity="0.05"/><stop offset="0.69" stop-color="#fff" stop-opacity="0.01"/><stop offset="0.84" stop-color="#fff" stop-opacity="0"/></radialGradient></defs><title>silhouette enfant clipped glow</title><g id="boy"><path class="cls-1" d="M233.44,1572.28c-2.44-1.37-3.88-3.75-5.63-5.76-4.08-4.7-7.89-9.63-11.85-14.43q-11.44-13.86-22.18-28.25c-13-17.41-25.6-35.1-37.38-53.36q-13.65-21.13-26.28-42.9c-11.45-19.8-22.08-40-32.13-60.56-6.53-13.35-12.64-26.89-18.48-40.56q-5.85-13.65-11.3-27.46c-6.86-17.39-13.11-35-18.91-52.76-5.34-16.39-10.16-32.93-14.67-49.58-3.6-13.24-6.78-26.58-9.89-39.93-2.35-10.09-4.17-20.29-6.11-30.47q-2.41-12.66-4.55-25.39c-.87-5.18-1.47-10.41-2.21-15.62q-1.28-9-2.6-18c-.44-3-.36-6-.93-9-.79-4.21-.85-8.55-1.28-12.84-.52-5.22-1.1-10.44-1.65-15.67a5.13,5.13,0,0,1-.11-1c.27-5.93-1-11.76-1.11-17.67C4,1001.54,3.55,992,3,982.41s-.44-19.16-.59-28.73-.46-18.91.18-28.31c.53-7.67.21-15.35.91-23,.49-5.42.41-10.86.93-16.25.75-7.77,1-15.6,2-23.33.55-4.42.45-8.9,1.44-13.3a65.71,65.71,0,0,0,1-9c.68-8.75,2.16-17.4,3.25-26.09,1.13-9,3-17.9,4.44-26.86,2.6-16.05,5.92-32,9.53-47.8,3.69-16.19,7.82-32.24,12.28-48.22q6.31-22.62,13.81-44.85,9-26.55,19.49-52.54Q79,575.93,87,558c6.58-14.75,13.91-29.14,21.2-43.56,7.93-15.69,16.58-31,25.41-46.19,12-20.74,25-40.86,38.67-60.57,8.53-12.35,17.42-24.46,26.51-36.4,6.86-9,13.85-18,21.25-26.54,5.93-6.9,11.59-14,17.49-21,3.52-4.13,7.34-8,10.9-12.1,5.57-6.4,11.74-12.24,17.37-18.55,9-10,18.64-19.35,28.29-28.68,4.59-4.44,9.13-9,14-13.15,7.72-6.69,15-13.88,22.91-20.36,7-5.77,13.8-11.87,20.82-17.66,6.4-5.29,13-10.39,19.48-15.51,10.81-8.48,21.89-16.6,33.09-24.53,12.64-9,25.56-17.52,38.6-25.9,10.35-6.65,20.94-12.9,31.47-19.26,5.06-3,10.23-5.91,15.38-8.82,18.51-10.48,37.51-20,56.68-29.25q16.62-8,33.64-15.14c9-3.78,18-7.53,27-11.1,17.84-7,35.9-13.41,54.12-19.36,17.16-5.59,34.48-10.56,51.91-15.21,10.33-2.75,20.7-5.32,31.13-7.63,10.26-2.28,20.54-4.52,30.86-6.52q15.95-3.11,32-5.67c7.71-1.24,15.47-2.08,23.2-3.13,6.32-.85,12.61-1.8,18.93-2.6,3.48-.44,7-.45,10.48-1,4.86-.76,9.92-.39,14.75-1.3,6-1.13,12.14-.15,18.1-1.55a22,22,0,0,1,4.31-.18c11-.36,22-1.4,33-1.1,14.67-1.6,29.39-.42,44.08-.74,8.74,1.25,17.58.35,26.32,1.05,5.42.44,10.87.33,16.24,1,4.3.5,8.66.22,12.86,1,5.22.9,10.51.39,15.71,1.48,3.41.71,7,.42,10.46,1,4.07.72,8.26.71,12.37,1.21,5.85.71,11.67,1.6,17.51,2.41,3.31.46,6.63.84,9.94,1.36,7.39,1.17,14.76,2.49,22.16,3.59,11.19,1.67,22.29,3.89,33.35,6.23,12.63,2.66,25.18,5.76,37.72,8.85,18.13,4.47,36,9.69,53.87,15.29,18.59,5.84,36.93,12.38,55.13,19.33q19.26,7.35,38.14,15.55c9.24,4,18.39,8.19,27.48,12.53,8.8,4.2,17.65,8.32,26.28,12.85,12.72,6.69,25.42,13.43,37.89,20.61,11.08,6.38,22.15,12.78,32.94,19.61q20.05,12.68,39.57,26.17c13.8,9.55,27.15,19.68,40.55,29.75,5.62,4.21,11,8.75,16.45,13.17,5,4,9.92,8,14.8,12.15,3.43,2.88,6.73,5.9,10.09,8.85l14,12.33c.36.31.72.63,1.07,1,7.18,6.83,14.47,13.55,21.53,20.5q14.21,14,28.11,28.23c5.67,5.84,11,12,16.45,18.06,3.12,3.42,6.27,6.81,9.34,10.29,7,7.91,13.56,16.12,20.36,24.17,11.14,13.18,21.41,27,31.78,40.8,3.56,4.72,6.93,9.58,10.34,14.4,9.22,13.06,18,26.4,26.54,39.9,7.85,12.42,15.28,25.1,22.59,37.85,12.34,21.52,23.49,43.65,34.18,66,5.72,12,11,24.12,16.1,36.36q8.16,19.46,15.46,39.22,8.76,23.82,16.21,48.11c3.36,11,6.59,22,9.58,33.11q4.62,17.08,8.53,34.36c2.51,11,4.89,22.1,7,33.21,1.57,8.13,2.91,16.3,4.33,24.46.9,5.18,1.83,10.35,2.6,15.55.82,5.51,1.46,11.05,2.18,16.58.89,6.79,1.81,13.57,2.67,20.36.42,3.32.4,6.66.92,10,.8,5,.56,10.21,1.3,15.24,1,6.65.53,13.37,1.55,20,.6,3.92,0,8,.39,12,1.45,13.72.68,27.47.81,41.2s.18,27.21-.13,40.8c-.16,7.17-.59,14.35-1,21.51-.27,4.13-.23,8.33-.88,12.39-.93,5.69-.5,11.46-1.53,17.14-.82,4.53-.81,9.2-1.23,13.81-.26,2.85-.59,5.7-1,8.54q-1.21,9.48-2.52,18.94c-.38,2.84-.87,5.67-1.2,8.52-.92,7.91-2.37,15.74-3.68,23.59-1.5,9-3.09,17.9-5,26.79-2,9.35-3.82,18.74-6,28q-4.53,19.08-9.57,38c-2.3,8.63-4.88,17.19-7.54,25.72-3.43,11-6.86,22-10.66,32.8-4.22,12.06-8.71,24-13.37,35.91-4.71,12.05-9.74,24-14.7,35.91-1.66,4-3.53,7.87-5.33,11.79-7.75,16.86-15.88,33.54-24.57,49.92-9,17.08-18.7,33.83-28.7,50.38s-20.55,32.37-31.34,48.21c-8.36,12.28-17.26,24.17-26.3,36q-8.14,10.63-16.53,21.11c-3.8,4.73-7.79,9.3-11.72,13.93q-7.59,8.94-15.22,17.86c-.41.48-.85.95-1.29,1.42-5.34,5.72-10.81,11.34-16,17.19-11,12.47-23.12,23.92-34.95,35.6-6.58,6.51-13.6,12.57-20.44,18.82q-5.84,5.34-11.72,10.63c-3.21,2.87-6.46,5.71-9.69,8.57a3.18,3.18,0,0,1-2.15.87,4.53,4.53,0,0,1,.87-2.69c1.23-2,2.44-4.12,3.74-6.13a286.7,286.7,0,0,0,19.49-34.6c.87-1.88,1.7-3.79,2.39-5.74,4.37-12.51,7-25.48,9.93-38.37,1.54-6.83,2.77-13.72,4.27-20.56a19.67,19.67,0,0,0,.58-4.24l-.06-12.47.27-1.08c2.45-1.42,3.68-4,5.46-6,4.64-5.27,9.32-10.53,13.75-16,7.45-9.16,14.83-18.38,22-27.75q14-18.23,27-37.2,22.42-32.58,42.19-66.84,9.67-16.83,18.69-34,12.35-23.58,23.24-47.88,7.82-17.51,15.13-35.21c7.11-17.29,13.47-34.85,19.55-52.51,4.68-13.59,8.91-27.32,12.84-41.14,3.62-12.73,7.26-25.46,10.23-38.37q3.91-17,7.61-34.07,2.52-11.67,4.65-23.44c1.21-6.73,1.93-13.57,3.25-20.28,1.5-7.67,2.15-15.46,3.5-23.14.52-3,.74-6,1.07-9,.39-3.64.41-7.37,1.21-10.92,1-4.4.91-8.88,1.42-13.3.64-5.52,1.63-11.07,1.29-16.69a7.73,7.73,0,0,1,.08-1.44c1-8.55,1.55-17.14,1.8-25.75.08-2.87.34-5.72.58-8.58a124.7,124.7,0,0,0,0-21.08c-.19-2.22-.49-4.43-.54-6.66-.08-3.68.21-7.41-.32-11-1-6.81-.67-13.69-1.57-20.5-.7-5.21-.82-10.49-1.2-15.74,0-.32-.12-.63-.15-.94-.54-4.43-1.1-8.85-1.61-13.28-.43-3.8-.71-7.62-1.22-11.41-.78-5.83-1.73-11.65-2.56-17.48-.77-5.36-1.33-10.76-2.25-16.09-1.71-9.89-3.63-19.74-5.45-29.6-2.39-13-5.3-25.92-8.35-38.79-1.84-7.76-4-15.43-6-23.18-4.13-16.74-9.25-33.2-14.5-49.61-3.06-9.58-6.41-19.07-9.75-28.56q-3.49-9.95-7.34-19.75-6.47-16.51-13.34-32.85c-5-11.92-10.4-23.7-16-35.36q-9.75-20.31-20.37-40.22-9.64-18-20-35.5c-6.65-11.28-13.75-22.3-20.83-33.31-8.72-13.58-17.76-26.95-27.31-39.95-8.68-11.85-17.53-23.57-26.72-35s-18.81-23-28.54-34.18c-3.15-3.62-6.44-7.1-9.67-10.64-5.37-5.9-10.54-12-16.14-17.69-6.27-6.38-12.93-12.38-19.42-18.54-.23-.22-.47-.43-.71-.64q-7-6.16-14-12.33c-3.36-2.95-6.64-6-10.07-8.85q-9.39-7.8-18.94-15.42-10.85-8.67-21.8-17.19c-11.38-8.79-23.13-17.06-34.89-25.32-13.61-9.55-27.56-18.56-41.7-27.26q-18-11.06-36.37-21.34c-11.61-6.43-23.4-12.5-35.11-18.71-6.77-3.59-13.78-6.74-20.73-10-8.54-4-17-8.1-25.7-11.79-11.75-5-23.5-10-35.42-14.62-14.45-5.6-29-11-43.65-15.89q-18.84-6.32-37.93-11.85c-15-4.35-30.12-8.39-45.34-11.95-11.49-2.68-23-5.12-34.57-7.54-5.77-1.2-11.6-2.11-17.4-3.15-6.58-1.18-13.15-2.4-19.75-3.51q-7.07-1.19-14.18-2.1c-6-.78-12.06-1.2-18-2.22-2.85-.49-5.71-.59-8.55-1-4.26-.58-8.51-1.38-12.79-1.54-5.27-.2-10.45-1.47-15.74-1.2-5.93-1.55-12.07-.62-18.1-1.59-5-.8-10.21,0-15.26-1.07-12.61.13-25.25-.94-37.83.74-7.2-.26-14.34.75-21.51,1.11a146.39,146.39,0,0,0-15.26,1.19c-3.34.52-6.73.24-10,1-4.08.9-8.24.79-12.34,1.49-6.27,1.07-12.69,1.27-19,2.31-2.85.48-5.71.56-8.54,1-7.07,1.2-14.15,2.3-21.21,3.52-8.16,1.4-16.34,2.75-24.46,4.37-9.53,1.9-19,4.08-28.51,6.11C760.59,82,747.79,85.33,735,88.72c-11,2.91-21.79,6.2-32.64,9.47-12.54,3.79-25,7.92-37.3,12.3q-20.52,7.31-40.69,15.6c-12.28,5-24.37,10.44-36.54,15.69a12.52,12.52,0,0,0-4.1,2.42,52.74,52.74,0,0,1-15.26-.3,14.92,14.92,0,0,0-5.24.12,24.42,24.42,0,0,1-4.74.47,85,85,0,0,0-19.42,2.26,164.69,164.69,0,0,0-55.79,23.12,241.15,241.15,0,0,0-27.5,20.67,210.56,210.56,0,0,0-23.42,23.9c-2,2.46-4.36,4.68-6.21,7.27A188.84,188.84,0,0,0,413.5,242a8.71,8.71,0,0,0-1.5,4l-2.62,3.22a3.21,3.21,0,0,0-2.19.79c-1.51,1.18-3.05,2.32-4.55,3.51-6.88,5.45-13.84,10.8-20.63,16.39-7.39,6.08-14.7,12.27-22,18.45-3.42,2.89-6.68,5.95-10,9-5.32,4.83-10.85,9.44-16,14.42-8.06,7.76-16,15.67-23.45,24s-15.24,16.79-22.5,25.51c-5.61,6.75-11.45,13.32-16.95,20.16-7,8.71-13.92,17.5-20.57,26.47q-11.83,16-23.12,32.35c-14.24,20.66-27.7,41.82-40,63.68-5.57,9.88-11.37,19.65-16.58,29.71-7.51,14.48-14.85,29-21.72,43.85-6.39,13.77-12.44,27.68-18.26,41.7q-8.27,19.9-15.38,40.27c-6,17-11.68,34.14-16.72,51.48C94,727,89.56,743.18,85.78,759.5c-2.65,11.49-5.09,23-7.55,34.57q-1.61,7.48-2.9,15c-1.17,6.75-2.21,13.52-3.26,20.29-.91,5.82-1.76,11.65-2.65,17.48-.48,3.14-1,6.28-1.46,9.44-.49,3.63-.94,7.27-1.32,10.91-.44,4.12-.49,8.31-1.25,12.36a133.89,133.89,0,0,0-1.46,13.78c-.49,5.87-1.6,11.72-1.25,17.66a3.74,3.74,0,0,1-.06,1c-1.55,6.91-.73,14-1.52,21s-.17,14.38-.35,21.58c-.22,8.64.86,17.22,1,25.84.1,6.24,1.4,12.38,1.14,18.63a3.88,3.88,0,0,0,.11,1c1.22,4.83.71,9.83,1.55,14.73.76,4.38.71,8.89,1.24,13.32.78,6.64,1.76,13.26,2.66,19.89,1,7.57,1.91,15.18,3.13,22.72q2.61,16,5.67,32,3,15.48,6.54,30.87c2.49,10.88,5.19,21.72,8,32.53q5.58,21.8,12.5,43.22c7.87,24.49,16.5,48.7,26.26,72.51q10.37,25.29,22,50,9,19.08,19,37.67,9.21,17.1,18.94,33.89,13.85,23.84,29.15,46.76Q231,1467,242.85,1483.53c5.68,7.9,11.77,15.5,17.68,23.23.07.34.15.67.23,1-1.2.47-1.48,1.63-1.91,2.63-2.65,6.14-5.35,12.27-7.89,18.46-4.17,10.17-8.21,20.4-12.35,30.58C236.87,1563.72,235.84,1568.27,233.44,1572.28Z" transform="translate(88.17 31.05)"/><path class="cls-2" d="M233.44,1572.28c2.4-4,3.43-8.56,5.17-12.84,4.14-10.18,8.18-20.41,12.35-30.58,2.54-6.19,5.24-12.32,7.89-18.46.43-1,.71-2.16,1.91-2.63,1.6.88,2.43,2.48,3.53,3.83,6.37,7.8,12.68,15.66,19.1,23.42q10.55,12.76,21.72,25c8.51,9.34,16.85,18.85,26.15,27.43,10.81,10,21.68,19.89,32.87,29.45q19.14,16.38,39.09,31.76,32.17,24.67,66.3,46.61,32.73,21,67,39.26a958,958,0,0,0,111.33,50.37q35.89,13.53,72.76,24.16c22.88,6.58,46,12.34,69.29,17.12,11.1,2.28,22.21,4.56,33.42,6.27,9.16,1.4,18.28,3,27.43,4.39,5.37.82,10.76,1.5,16.16,2.12q10.47,1.2,21,2.22c8.74.87,17.48,1.83,26.24,2.48,8.44.62,16.92.9,25.38,1.33,1,0,1.92.06,2.87.2a53.6,53.6,0,0,0,10.05.35l1.14.18a11.81,11.81,0,0,0,.46,3.78c1.51,5.2,3.1,10.38,4.38,15.63,2,8.19,3.91,16.4,5.53,24.67.88,4.52,2.16,9,2.33,13.63l-.12,0c-7.1,0-14.19-.13-21.29-.15-3.15,0-6.3.11-9.45.18-5.6-.1-11.21,0-16.79-.36-8.77-.61-17.57-.53-26.32-1.49-5.24-.57-10.52-.7-15.77-1.14-6-.51-12.09-1.15-18.13-1.72-3.5-.32-7-.65-10.49-1q-24-2.76-47.91-6.66c-26.67-4.33-53-9.94-79.23-16.56q-29-7.34-57.55-16.53A949.72,949.72,0,0,1,477,1775.05q-33.42-19.4-65.16-41.42-32.54-22.56-63.06-47.79c-13.43-11.11-26.52-22.62-39.4-34.37-9.34-8.52-18.42-17.31-27.36-26.23-16.2-16.15-31.85-32.82-46.78-50.17A6.71,6.71,0,0,1,233.44,1572.28Z" transform="translate(88.17 31.05)"/><path class="cls-3" d="M1613.1,1552l.06,12.47a19.67,19.67,0,0,1-.58,4.24c-1.5,6.84-2.73,13.73-4.27,20.56-2.91,12.89-5.56,25.86-9.93,38.37-.69,2-1.52,3.86-2.39,5.74a286.7,286.7,0,0,1-19.49,34.6c-1.3,2-2.51,4.08-3.74,6.13a4.53,4.53,0,0,0-.87,2.69l0,0a1.5,1.5,0,0,0-1,1.26c-1.53,2.34-4.12,3.47-6.13,5.29-4.12,3.75-8.54,7.17-12.89,10.66-5.47,4.39-11,8.75-16.51,13s-11.09,8.6-16.81,12.67c-14.68,10.45-29.38,20.89-44.56,30.62-12,7.66-24,15.24-36.24,22.38-11.18,6.5-22.47,12.78-33.85,18.93-12.23,6.62-24.66,12.84-37.19,18.84q-17.06,8.14-34.45,15.59c-11.45,4.88-23,9.51-34.53,14.15-4.44,1.78-9,3.28-13.46,4.95a7.53,7.53,0,0,1-3.27.62c.8-2.8,2.53-5.09,4.09-7.45q10.23-15.55,20.57-31c6.46-9.64,12.82-19.37,19.63-28.76a87.9,87.9,0,0,0,11.28-19.83,11.11,11.11,0,0,0,1.14-5.05l0,0a1.13,1.13,0,0,0,1-.9l1-1.06a25.12,25.12,0,0,0,2.68-1c14.34-7,28.59-14.24,42.49-22.11,10.14-5.75,20.4-11.28,30.39-17.27,11.08-6.64,22-13.59,32.84-20.58,14.62-9.41,28.86-19.38,42.85-29.71,7.95-5.87,15.91-11.73,23.67-17.84,8.77-6.89,17.34-14,26-21.11,2.71-2.22,5.33-4.56,8-6.89,3.58-3.17,7.12-6.39,10.69-9.58,5.58-5,11.36-9.79,16.71-15,8.79-8.6,17.79-17,25.72-26.45,2.87-3.41,6.39-6.25,9-9.94A14.3,14.3,0,0,1,1613.1,1552Z" transform="translate(88.17 31.05)"/><path class="cls-1" d="M1337.71,1753.6a11.11,11.11,0,0,1-1.14,5.05,87.9,87.9,0,0,1-11.28,19.83c-6.81,9.39-13.17,19.12-19.63,28.76q-10.38,15.46-20.57,31c-1.56,2.36-3.29,4.65-4.09,7.45l0,0-1,.91c-7.74,3.47-15.88,5.83-23.89,8.54-26.77,9-54,16.59-81.44,23.14-11.16,2.65-22.37,5.15-33.61,7.41-9.83,2-19.75,3.54-29.64,5.24-8.47,1.46-17,2.77-25.49,3.88-7.74,1-15.47,2-23.22,2.89-6,.68-12,1.5-18,1.9-3.81.25-7.58,1.09-11.43.78a19.47,19.47,0,0,0-2.22-3.68c-4.47-6-8.87-12.07-13.28-18.13q-7.6-10.44-15.16-20.9c-3.25-4.53-6.43-9.11-9.65-13.67,3.32-.38,6.67-.71,10-1,7.3-.57,14.59-1.21,21.87-2,5.7-.6,11.39-1.27,17.08-1.92q10.9-1.23,21.75-2.92c2.2-.35,4.4-.68,6.61-1,5-.74,10.09-1.36,15.1-2.24,8-1.41,16-2.89,23.92-4.51,11.54-2.36,23.09-4.71,34.56-7.35,10.4-2.4,20.74-5.07,31-7.87,14.16-3.84,28.24-7.92,42.21-12.37,21.43-6.84,42.55-14.56,63.44-22.92,16.6-6.64,33-13.65,49.18-21.3C1332.28,1755.43,1334.8,1754,1337.71,1753.6Z" transform="translate(88.17 31.05)"/><path class="cls-4" d="M993,1844c3.22,4.56,6.4,9.14,9.65,13.67q7.54,10.47,15.16,20.9c4.41,6.06,8.81,12.12,13.28,18.13a19.47,19.47,0,0,1,2.22,3.68,627.33,627.33,0,0,1-67,3c-.17-4.65-1.45-9.11-2.33-13.63-1.62-8.27-3.55-16.48-5.53-24.67-1.28-5.25-2.87-10.43-4.38-15.63a11.81,11.81,0,0,1-.46-3.78c5.71-.11,11.41-.25,17.12-.71,7.1-.56,14.27-.35,21.38-1.25A3.59,3.59,0,0,1,993,1844Z" transform="translate(88.17 31.05)"/><path class="cls-4" d="M935.42,1903.47c3.15-.07,6.3-.19,9.45-.18,7.1,0,14.19.1,21.29.15a2.86,2.86,0,0,1-2.19.75l-26.31,0A3.4,3.4,0,0,1,935.42,1903.47Z" transform="translate(88.17 31.05)"/><path class="cls-1" d="M1570.89,1678a1.5,1.5,0,0,1,1-1.26Z" transform="translate(88.17 31.05)"/><path class="cls-3" d="M1280.06,1846.6l1-.91A1.2,1.2,0,0,1,1280.06,1846.6Z" transform="translate(88.17 31.05)"/><path class="cls-5" d="M993,1844a3.59,3.59,0,0,0-.9-.27c-.75-1.23-1.42-2.5-2.24-3.67q-4.58-6.45-9.23-12.84-14.93-20.54-29.91-41c-2-2.7-3.66-5.65-6.31-7.81,0-1.38-1.53-2.36-.81-4,2-4.64,2.36-9.59,2.4-14.57,0-5.75-.07-11.51,0-17.27a23.4,23.4,0,0,0-2-9.78c-1.09-2.49-2.25-5-3.5-7.36a224.39,224.39,0,0,0-12.63-20.93,18.41,18.41,0,0,1-2.42-5.15,103.76,103.76,0,0,0-3.51-9.94c-4-9.78-8.43-19.34-13-28.83-8.68-18-17.39-36-26.57-53.73q-20.05-38.76-40-77.56c-7.74-15-18.74-26.58-34.57-33.09a4.44,4.44,0,0,1-2.58-3.19c-1.43-4.57-2.84-9.16-4.3-13.72-1.62-5-3.53-9.93-4.66-15.1a20,20,0,0,0-5.1-9.11c-5.92-6.54-13.31-10.91-21.3-14.36a6.48,6.48,0,0,0-1.42-.24c-1.75-1.56-1.17-3.55-.82-5.37,1-5.31,2.15-10.61,3.3-15.89,3.17-14.47,7-28.78,10.74-43.1a22.93,22.93,0,0,1,3.58-7.73c8.95-12.42,17.21-25.31,25.59-38.11,1.38-2.11,3.05-4.1,3.69-6.64,1.91-1.34,2.75-3.47,3.94-5.33,2.07-3.22,4-6.5,6.05-9.76a3.26,3.26,0,0,1,3.57-1.6c5.86.55,11.76,1.07,17.64,1,7.49,0,15-.62,22.45-1a1.23,1.23,0,0,0,1.17-.61l1.72-.06v.07l1.05.78c13.26,7.74,26.66,15.21,40.57,21.73A240.92,240.92,0,0,0,943.4,1341c12.45,3.86,25.07,6.14,38.19,5.81a54.08,54.08,0,0,0,27.72-8.07c11-6.86,21.41-14.57,30.41-24a84.4,84.4,0,0,0,15.74-22.78c3.33-7.23,5.37-14.76,4.72-22.74a12.14,12.14,0,0,1,3-9.25c.91-1.1,1.86-2.19,2.84-3.24,5.31-5.66,11.74-9.86,18.33-13.82a128.48,128.48,0,0,0,14.67-9.94c3.59-2.89,7.53-5.45,10.25-9.31a54.87,54.87,0,0,0,10.5-11.23c2.78-1.06,4.66-3.27,6.55-5.38,3.91-4.37,5.74-9.41,4.37-15.34-.17-.76-.22-1.56-.4-2.33-1.45-6.33-2.87-12.67-5.84-18.52a3.31,3.31,0,0,1,2.06-3.85,22.5,22.5,0,0,0,2.13-1.09,105,105,0,0,1,22.46-9.19,19.44,19.44,0,0,0,10.89-8,50.35,50.35,0,0,0,4.73-8.8c2.2-5,3.21-10.29,4.86-15.43a17.41,17.41,0,0,0,.89-7.5c.06-1.6.15-3.2.16-4.79,0-6.12-1.23-12.07-2.47-18-1.84-8.75-4-17.43-5.81-26.18-.7-3.39-1.71-6.86-.47-10.37,4.51,0,8.36-1.87,11.88-4.51a12.67,12.67,0,0,1,6.44-2.81c5-.49,9.49-2.61,13.89-4.94a64.62,64.62,0,0,0,16.22-12.54,4.13,4.13,0,0,0,1.51-2.88c0-4,.23-8-.57-11.93a91.86,91.86,0,0,0-12.53-30.87,77.08,77.08,0,0,1-8-16.23,33.57,33.57,0,0,0-1.7-4q-5.4-11-10.87-21.89a6.26,6.26,0,0,0-1.81-2.77c-.39-2.09-1.64-3.79-2.6-5.62s-1.82-3.37-2.78-5a7.09,7.09,0,0,1-.91-5,21.12,21.12,0,0,0,.14-6.2c-.89-6.81-.38-13.71-1.46-20.52-.72-4.56-.62-9.25-1.41-13.79a12,12,0,0,1,1.12-7.84c1.22-2.42,2.42-4.87,3.83-7.18A244,244,0,0,1,1191.6,847c6.92-8.78,14.16-17.29,21.52-25.71,8.4-9.62,16.67-19.37,25.7-28.41a44.25,44.25,0,0,0,11.47-20.14,85.38,85.38,0,0,0,2.72-19.85,125.18,125.18,0,0,1,1.73-17.6,71.57,71.57,0,0,0,1.25-11.89,206.11,206.11,0,0,0-.86-23.44c-.5-4.59-.68-9.23-1.29-13.81-1.09-8.21-2.26-16.42-3.64-24.59-.77-4.54-1.15-9.18-2.69-13.57,2.12-.54,3.53-2.16,5.12-3.46,7.64-6.28,5.14-5.24,14-3.06a53.09,53.09,0,0,0,27.94-.39,79,79,0,0,0,16.78-7,157.9,157.9,0,0,0,36.74-29,62.41,62.41,0,0,0,9.09-12.33,47.13,47.13,0,0,0,6.53-24.71c-.19-9-3-17.25-7.45-25a74.5,74.5,0,0,0-14.74-18.18,3.92,3.92,0,0,1-1.42-3.73,181.48,181.48,0,0,0,.63-24.9,119.92,119.92,0,0,0-7.89-38.31c-5.22-13.45-12.6-25.48-23.44-35.18a4.6,4.6,0,0,1-1.56-3.79,54.91,54.91,0,0,0-2.39-14.61A86.25,86.25,0,0,0,1295,381.82a166.71,166.71,0,0,0-21.69-26.8c-16.27-16.65-34.5-30.93-53.51-44.28-16.62-11.67-33.83-22.44-51.38-32.66-25-14.56-50.58-28-76.63-40.65-17.11-8.29-34.37-16.27-51.85-23.76a11.59,11.59,0,0,1-4.35-2.85,42.39,42.39,0,0,0-10.15-7.95c-7.7-4.65-16-8-24.31-11.31-10.81-4.37-21.81-8.28-32.17-13.69-8.36-4.36-16.67-8.82-25-13.23-1.41-.74-2.69-1.76-4.34-1.95a1.35,1.35,0,0,0-1.31-.67,2.1,2.1,0,0,0-2-.85c-.47-1.15-1.62-1.5-2.56-2q-13.19-7.32-26.4-14.58c-3.64-2-7.21-4.14-11-5.86-10.3-4.72-20.85-8.83-31.54-12.58a307.86,307.86,0,0,0-55.59-13.9,146.45,146.45,0,0,0-18.07-1.9c-11-.31-22-.09-33-.08a11.4,11.4,0,0,0-1.43.06c-6.47.88-13,1.61-19.41,2.74-2.45.43-5.09.42-7.36,1.73a32.79,32.79,0,0,0-3.3.49,178.68,178.68,0,0,0-23.29,7.32c-22.73,9-43,21.7-59.8,39.72-3,3.22-2.69,3-6.34,1A157,157,0,0,0,584,145.21l-.23-1a12.67,12.67,0,0,1,4.11-2.42c12.17-5.25,24.26-10.67,36.54-15.69q20.18-8.25,40.69-15.6c12.33-4.38,24.76-8.51,37.3-12.3,10.85-3.27,21.69-6.56,32.64-9.47,12.79-3.39,25.59-6.76,38.54-9.52,9.51-2,19-4.21,28.51-6.11,8.12-1.62,16.3-3,24.46-4.37,7.06-1.22,14.14-2.32,21.21-3.52,2.83-.48,5.69-.56,8.54-1,6.27-1,12.69-1.24,19-2.31,4.1-.7,8.26-.59,12.34-1.49,3.25-.72,6.64-.44,10-1a146.39,146.39,0,0,1,15.26-1.19c7.17-.36,14.31-1.37,21.51-1.11,12.58-1.68,25.22-.61,37.83-.74,5.05,1.07,10.26.27,15.26,1.07,6,1,12.17,0,18.1,1.59,5.29-.27,10.47,1,15.74,1.2,4.28.16,8.53,1,12.79,1.54,2.84.39,5.7.49,8.55,1,6,1,12,1.44,18,2.22q7.11.92,14.18,2.1c6.6,1.11,13.17,2.33,19.75,3.51,5.8,1,11.63,2,17.4,3.15,11.54,2.42,23.08,4.86,34.57,7.54,15.22,3.56,30.32,7.6,45.34,11.95q19.08,5.54,37.93,11.85c14.68,4.92,29.2,10.29,43.65,15.89,11.92,4.61,23.67,9.61,35.42,14.62,8.66,3.69,17.16,7.79,25.7,11.79,7,3.25,14,6.4,20.73,10,11.71,6.21,23.5,12.28,35.11,18.71q18.43,10.24,36.37,21.34c14.14,8.7,28.09,17.71,41.7,27.26,11.76,8.26,23.51,16.53,34.89,25.32q11,8.49,21.8,17.19,9.54,7.62,18.94,15.42c3.43,2.85,6.71,5.9,10.07,8.85q7,6.18,14,12.33c.24.21.48.42.71.64,6.49,6.16,13.15,12.16,19.42,18.54,5.6,5.68,10.77,11.79,16.14,17.69,3.23,3.54,6.52,7,9.67,10.64q14.6,16.82,28.54,34.18c9.19,11.46,18,23.18,26.72,35,9.55,13,18.59,26.37,27.31,39.95,7.08,11,14.18,22,20.83,33.31q10.34,17.53,20,35.5,10.66,19.88,20.37,40.22c5.59,11.66,11,23.44,16,35.36q6.89,16.35,13.34,32.85,3.84,9.81,7.34,19.75c3.34,9.49,6.69,19,9.75,28.56,5.25,16.41,10.37,32.87,14.5,49.61,1.91,7.75,4.11,15.42,6,23.18,3,12.87,6,25.77,8.35,38.79,1.82,9.86,3.74,19.71,5.45,29.6.92,5.33,1.48,10.73,2.25,16.09.83,5.83,1.78,11.65,2.56,17.48.51,3.79.79,7.61,1.22,11.41.51,4.43,1.07,8.85,1.61,13.28,0,.31.13.62.15.94.38,5.25.5,10.53,1.2,15.74.9,6.81.57,13.69,1.57,20.5.53,3.61.24,7.34.32,11,0,2.23.35,4.44.54,6.66a124.7,124.7,0,0,1,0,21.08c-.24,2.86-.5,5.71-.58,8.58-.25,8.61-.76,17.2-1.8,25.75a7.73,7.73,0,0,0-.08,1.44c.34,5.62-.65,11.17-1.29,16.69-.51,4.42-.43,8.9-1.42,13.3-.8,3.55-.82,7.28-1.21,10.92-.33,3-.55,6-1.07,9-1.35,7.68-2,15.47-3.5,23.14-1.32,6.71-2,13.55-3.25,20.28q-2.12,11.76-4.65,23.44-3.67,17.07-7.61,34.07c-3,12.91-6.61,25.64-10.23,38.37-3.93,13.82-8.16,27.55-12.84,41.14-6.08,17.66-12.44,35.22-19.55,52.51q-7.29,17.73-15.13,35.21-10.86,24.32-23.24,47.88-9,17.19-18.69,34-19.72,34.3-42.19,66.84-13,18.94-27,37.2c-7.2,9.37-14.58,18.59-22,27.75-4.43,5.45-9.11,10.71-13.75,16-1.78,2-3,4.56-5.46,6-.4-5.56-.75-11.13-1.22-16.69a5.43,5.43,0,0,1,1.81-4.67c8-8,13.8-17.5,18.42-27.76.91-2,1.94-4,2-6.34,1.24-2.23,2.36-4.53,3.73-6.67,3.8-6,6.54-12.44,9.26-18.91,6.69-15.94,11.32-32.54,15.4-49.29.7-2.9,1.62-5.88,1.12-9-.41-2.52-.89-5-1.32-7.53a172.71,172.71,0,0,0-4.37-17.64c-3.16-11.05-6.77-22-10.71-32.76q-4.93-13.49-9.8-27-1.93-5.42-3.6-10.92a6.17,6.17,0,0,0-4.45-4.56,26.31,26.31,0,0,1-2.71-.94q-8.92-3.42-17.84-6.87c1.18-3.48,2.3-7,3.56-10.42q20.65-56.76,41.35-113.52,18.7-51.35,37.41-102.7c11.29-30.93,22.71-61.8,33.89-92.76,5.27-14.6,9.56-29.49,11.24-45,.61-5.61.57-11.17-1.22-16.6-.71-2.18-1.61-4.25-3.61-5.5a49.46,49.46,0,0,0-10.16-5.34,23,23,0,0,0-19,1.29c-6,3.25-10.82,7.72-13.27,14.49-5.07,14-10.43,27.83-15.67,41.74q-15.64,41.49-31.3,83-16.23,43.07-32.47,86.13l-29.59,78.51q-16.92,44.86-33.85,89.71-8.28,22-16.62,43.89c-1.31-.6-2.58-1.27-3.91-1.81a20.51,20.51,0,0,0-12.63-1.28c-6.17,1.4-11.16,4.69-15.64,8.87a81.68,81.68,0,0,0-17.18,23.48c-8.59,17.15-17.13,34.33-25.76,51.47a76.2,76.2,0,0,1-12.47,18.1,11.82,11.82,0,0,1-4.09,3.26c-3,1.16-5,3.46-6.85,5.85s-3.45,4.61-5,7a8.94,8.94,0,0,1-3.83,3.45c-17.36,8.43-32.66,20-47.92,31.65a7.85,7.85,0,0,0-3.49,5.46c-.3,2.36-1.17,4.65-1.6,7-1.72,9.42-3.22,18.85-4.21,28.4-.75,7.16-.71,14.34-1.32,21.51a98,98,0,0,0,.36,18.19c.58,5.54.45,11.14,1,16.73.74,7.31,1.55,14.59,2.89,21.81a23.85,23.85,0,0,1-.06,8.59,25.24,25.24,0,0,0-.55,3.3c-.25,7.19-1.22,14.33-1,21.54.17,7,.09,14.07.13,21.11a26.66,26.66,0,0,0,.12,3.35c.94,6.68.44,13.42.83,20.11a5.11,5.11,0,0,1-1.75,4.25c-1.49,1.44-2.92,3-4.32,4.5-5.3,5.87-9.59,12.33-12,20-1.21,3.8-2.85,7.46-4.23,11.2-1.76,4.79-4.26,9.29-5.58,14.25l-1,1.06a1.09,1.09,0,0,0-1,.9l0,0c-2.91.37-5.43,1.83-8,3-16.16,7.65-32.58,14.66-49.18,21.3-20.89,8.36-42,16.08-63.44,22.92-14,4.45-28,8.53-42.21,12.37-10.3,2.8-20.64,5.47-31,7.87-11.47,2.64-23,5-34.56,7.35-8,1.62-15.93,3.1-23.92,4.51-5,.88-10.07,1.5-15.1,2.24-2.21.33-4.41.66-6.61,1q-10.85,1.68-21.75,2.92c-5.69.65-11.38,1.32-17.08,1.92-7.28.78-14.57,1.42-21.87,2C999.65,1843.29,996.3,1843.62,993,1844Z" transform="translate(88.17 31.05)"/><path class="cls-6" d="M936.28,161.17a2.1,2.1,0,0,1,2,.85,1.43,1.43,0,0,0,1.31.67c1.65.19,2.93,1.21,4.34,1.95,8.33,4.41,16.64,8.87,25,13.23,10.36,5.41,21.36,9.32,32.17,13.69,8.3,3.34,16.61,6.66,24.31,11.31a42.39,42.39,0,0,1,10.15,7.95,11.59,11.59,0,0,0,4.35,2.85c17.48,7.49,34.74,15.47,51.85,23.76,26,12.61,51.63,26.09,76.63,40.65,17.55,10.22,34.76,21,51.38,32.66,19,13.35,37.24,27.63,53.51,44.28a166.71,166.71,0,0,1,21.69,26.8,86.25,86.25,0,0,1,10.51,22.51,54.91,54.91,0,0,1,2.39,14.61,4.6,4.6,0,0,0,1.56,3.79c10.84,9.7,18.22,21.73,23.44,35.18a119.92,119.92,0,0,1,7.89,38.31,181.48,181.48,0,0,1-.63,24.9,3.92,3.92,0,0,0,1.42,3.73A74.5,74.5,0,0,1,1356.27,543c4.46,7.73,7.26,15.93,7.45,25a47.13,47.13,0,0,1-6.53,24.71,62.41,62.41,0,0,1-9.09,12.33,157.9,157.9,0,0,1-36.74,29,79,79,0,0,1-16.78,7,53.09,53.09,0,0,1-27.94.39c-8.87-2.18-6.37-3.22-14,3.06-1.59,1.3-3,2.92-5.12,3.45-3.34-2.19-6.67-4.41-10-6.57-4.09-2.62-5-2.51-8,1.17a137.1,137.1,0,0,1-25.82,24.25,230.7,230.7,0,0,1-51.27,27.87c-31.22,12.37-63.77,19.64-96.82,25-13.73,2.21-27.54,3.83-41.4,5.08-13.07,1.18-26.15,2.08-39.26,2.49-15.19.48-30.39.66-45.59.33-2.23,0-4.48-.1-6.71.07-4.43.35-7.57,2.42-8.55,7-.66,3.1-2.43,5.48-4.51,7.77A74.3,74.3,0,0,1,891.88,757c-2.83,1.62-4.7,3.77-5.23,7a16.89,16.89,0,0,1-.43,1.87c-4,13.43-12.23,23.36-24.82,29.61a64.53,64.53,0,0,1-9.79,3.88A104.38,104.38,0,0,1,817,803.68a158,158,0,0,1-26.17-3,28.46,28.46,0,0,0-3.32-.44,3.53,3.53,0,0,0-3.88,2.18c-.65,1.45-1.27,2.93-1.88,4.41a210.19,210.19,0,0,1-24.58,44.9,100.61,100.61,0,0,1-14.41,16,72.86,72.86,0,0,1-16.25,11A31.79,31.79,0,0,1,708.86,882c-1.43-.16-2.88-.18-4.32-.23a13.19,13.19,0,0,0-9.95,4c-1,1-2,2.08-3.06,3-3.18,2.85-6.74,4.38-11,2.48a4.87,4.87,0,0,0-5.72,1c-1.08,1-2.21,1.85-3.35,2.73a46.77,46.77,0,0,1-18.43,8.88,67.38,67.38,0,0,1-26.69.53c-13.32-2.31-25.2-8-36.39-15.39-5.12-3.37-7.38-8.21-7.26-14.27a18.78,18.78,0,0,1,4.5-11.87,29.86,29.86,0,0,1,6-5.47c.91-.64,1.88-1.21,2.76-1.89a1.44,1.44,0,0,0,.36-2.11c-.64-.91-1.37-1.76-2.07-2.63A35.29,35.29,0,0,1,587.83,838a51.1,51.1,0,0,1-1.84-12.3,135.09,135.09,0,0,1,3.34-31.88,126,126,0,0,1,6.61-21.52c2.57-6.19,1.12-11.17-3.67-15.54a53.65,53.65,0,0,0-11.73-8.26c-3.13-1.6-6.25-3.22-9.42-4.74-5.34-2.54-10.67-5.12-16.08-7.48a48.55,48.55,0,0,0-17.67-4,45.21,45.21,0,0,0-24.3,6.22A69.45,69.45,0,0,0,499,749.23c-11.24,10.85-19,24-25.28,38.14a12.35,12.35,0,0,0-.9,5.63c.2,5.11.42,10.22.58,15.34q.62,20.63,1.21,41.25c.05,1.76.12,3.52.33,5.27a159.87,159.87,0,0,0,7.83,33.06,185.54,185.54,0,0,0,23.66,45.35c1.31,1.86,2.53,3.64,2.58,6a29.49,29.49,0,0,0,3.23,12,147,147,0,0,0,13.2,22.79,11.64,11.64,0,0,0,1,2.11c8,10.94,14.46,22.82,21.39,34.42a18.3,18.3,0,0,1-3.69,13.06c-1.11,1.56-2.19,3.15-3.34,4.69a176,176,0,0,1-11.43,13.57,356.35,356.35,0,0,1-30,28.31c-2-.6-3.32.82-4.87,1.53-9.81,4.5-19.87,5.7-30.32,2.55-2.19-.66-2.39-.59-3.41,1.33a81.05,81.05,0,0,1-8.35,12.85c-4.43,5.54-9.42,10.44-15.84,13.7a26.85,26.85,0,0,1-23.6.85,40.1,40.1,0,0,1-7.93-4.45c-2.83-2.06-5.46-4.41-8.74-5.82a8.22,8.22,0,0,1-2.25-1.77c-3.77-3.61-4.79-8.19-4.44-13.16a40.24,40.24,0,0,1,3-12c3.09-7.79,7.52-14.81,12.32-21.62,4-5.62,8.28-11,12.67-16.27.45-.54,1.25-1.09.58-2l-6.64-.8c-14.33-1.71-25.49-8.72-33.92-20.29A58.09,58.09,0,0,1,371,993.16a12.45,12.45,0,0,0-3.74-4.85A191.31,191.31,0,0,1,334,952.6c-14.38-20.07-24.38-41.94-26.9-66.81a107.13,107.13,0,0,1,.95-28.67,124.78,124.78,0,0,1,13.09-37.9c.6-1.13,1.23-2.24,1.77-3.4a1.45,1.45,0,0,0-.64-2c-3-1.81-6.13-3.46-9-5.46-11.2-7.76-20.11-17.75-27.61-29-10.29-15.46-17.31-32.38-22.21-50.22-6.09-22.15-8.89-44.79-9.58-67.7-.24-7.83-.07-15.67-.09-23.51a16.74,16.74,0,0,0-.56-5.2c-4.74-14.91-6.35-30.31-6.87-45.84a257.28,257.28,0,0,1,2.46-41.59A315.94,315.94,0,0,1,259,497c8.78-29.89,17.83-59.7,26.58-89.59a90.7,90.7,0,0,1,10.07-22.18,250.49,250.49,0,0,1,15.14-21.6c13.53-17.48,28.53-33.66,44-49.4,13.8-14,28.13-27.51,42.72-40.71a14.12,14.12,0,0,0,3.55-5c2.42-5.57,5-11.08,7.49-16.61a5,5,0,0,0,.84-2.69L412,246a5.83,5.83,0,0,0,2.43-1.46q17.28-12.87,35.1-25,38.27-25.93,78.87-48.05C544,163,559.76,155.05,575.74,147.4c2.61-1.25,5.24-2.36,8.21-2.19a157,157,0,0,1,53.22,18.12c3.65,2,3.34,2.2,6.34-1,16.75-18,37.07-30.69,59.8-39.72a178.68,178.68,0,0,1,23.29-7.32,32.79,32.79,0,0,1,3.3-.49,37.76,37.76,0,0,1,5.23.36c5.76,1.17,11.52,2.35,17.2,3.81,9.69,2.49,19.47,4.6,29.21,6.87,9.43,2.21,18.87,4.38,28.3,6.58,9.74,2.27,19.46,4.63,29.22,6.82,10.85,2.43,21.65,5.05,32.47,7.58,9.58,2.25,19.18,4.45,28.76,6.72,11.27,2.67,22.53,5.4,33.8,8.12A2.1,2.1,0,0,0,936.28,161.17Z" transform="translate(88.17 31.05)"/><path class="cls-5" d="M409.38,249.22a5,5,0,0,1-.84,2.69c-2.51,5.53-5.07,11-7.49,16.61a14.12,14.12,0,0,1-3.55,5c-14.59,13.2-28.92,26.68-42.72,40.71-15.48,15.74-30.48,31.92-44,49.4a250.49,250.49,0,0,0-15.14,21.6,90.7,90.7,0,0,0-10.07,22.18c-8.75,29.89-17.8,59.7-26.58,89.59a315.94,315.94,0,0,0-10.18,48.25,257.28,257.28,0,0,0-2.46,41.59c.52,15.53,2.13,30.93,6.87,45.84a16.74,16.74,0,0,1,.56,5.2c0,7.84-.15,15.68.09,23.51.69,22.91,3.49,45.55,9.58,67.7,4.9,17.84,11.92,34.76,22.21,50.22,7.5,11.27,16.41,21.26,27.61,29,2.88,2,6,3.65,9,5.46a1.45,1.45,0,0,1,.64,2c-.54,1.16-1.17,2.27-1.77,3.4a124.78,124.78,0,0,0-13.09,37.9,107.13,107.13,0,0,0-.95,28.67c2.52,24.87,12.52,46.74,26.9,66.81a191.31,191.31,0,0,0,33.27,35.71,12.45,12.45,0,0,1,3.74,4.85,58.09,58.09,0,0,0,6.63,11.65c8.43,11.57,19.59,18.58,33.92,20.29l6.64.8c.67.91-.13,1.46-.58,2-4.39,5.3-8.71,10.65-12.67,16.27-4.8,6.81-9.23,13.83-12.32,21.62a40.24,40.24,0,0,0-3,12c-.35,5,.67,9.55,4.44,13.16a8.22,8.22,0,0,0,2.25,1.77c3.28,1.41,5.91,3.76,8.74,5.82A40.1,40.1,0,0,0,413,1103a26.85,26.85,0,0,0,23.6-.85c6.42-3.26,11.41-8.16,15.84-13.7a81.05,81.05,0,0,0,8.35-12.85c1-1.92,1.22-2,3.41-1.33,10.45,3.15,20.51,2,30.32-2.55,1.55-.71,2.9-2.13,4.87-1.53a9.13,9.13,0,0,0-.84,3.69c-.63,7.15-1.17,14.31-2,21.43-1,8.23-2.32,16.41-3.52,24.62-2.1,14.37-5,28.58-8.51,42.67-1.67,6.65-3.6,13.24-5.23,19.9a273.5,273.5,0,0,1-12.5,38.69,428,428,0,0,1-23.95,49,584.12,584.12,0,0,1-31.67,50.24,37.12,37.12,0,0,0-1.88,3.31A15.3,15.3,0,0,1,403,1328c-2.23.86-4.4,1.88-6.54,3-14.57,7.23-27.44,16.87-39.28,27.93-17.49,16.33-32.22,35-45.59,54.73a548.16,548.16,0,0,0-32.8,55.68q-9.56,18.51-18.22,37.46c-5.91-7.73-12-15.33-17.68-23.23Q231,1467,219.63,1450.07q-15.31-22.9-29.15-46.76-9.75-16.79-18.94-33.89-10-18.59-19-37.67-11.66-24.69-22-50c-9.76-23.81-18.39-48-26.26-72.51q-6.89-21.42-12.5-43.22c-2.77-10.81-5.47-21.65-8-32.53q-3.53-15.37-6.54-30.87-3.09-15.94-5.67-32c-1.22-7.54-2.1-15.15-3.13-22.72-.9-6.63-1.88-13.25-2.66-19.89-.53-4.43-.48-8.94-1.24-13.32-.84-4.9-.33-9.9-1.55-14.73a3.88,3.88,0,0,1-.11-1c.26-6.25-1-12.39-1.14-18.63-.14-8.62-1.22-17.2-1-25.84.18-7.2-.46-14.47.35-21.58s0-14.08,1.52-21a3.74,3.74,0,0,0,.06-1c-.35-5.94.76-11.79,1.25-17.66a133.89,133.89,0,0,1,1.46-13.78c.76-4.05.81-8.24,1.25-12.36.38-3.64.83-7.28,1.32-10.91.43-3.16,1-6.3,1.46-9.44.89-5.83,1.74-11.66,2.65-17.48,1.05-6.77,2.09-13.54,3.26-20.29q1.29-7.53,2.9-15c2.46-11.54,4.9-23.08,7.55-34.57C89.56,743.18,94,727,98.7,710.94c5-17.34,10.73-34.46,16.72-51.48q7.14-20.34,15.38-40.27c5.82-14,11.87-27.93,18.26-41.7,6.87-14.81,14.21-29.37,21.72-43.85,5.21-10.06,11-19.83,16.58-29.71,12.33-21.86,25.79-43,40-63.68q11.27-16.38,23.12-32.35c6.65-9,13.57-17.76,20.57-26.47,5.5-6.84,11.34-13.41,16.95-20.16,7.26-8.72,14.94-17.06,22.5-25.51s15.39-16.26,23.45-24c5.17-5,10.7-9.59,16-14.42,3.31-3,6.57-6.07,10-9,7.32-6.18,14.63-12.37,22-18.45,6.79-5.59,13.75-10.94,20.63-16.39,1.5-1.19,3-2.33,4.55-3.51A3.21,3.21,0,0,1,409.38,249.22Z" transform="translate(88.17 31.05)"/><path class="cls-7" d="M260.53,1506.76q8.67-18.94,18.22-37.46a548.16,548.16,0,0,1,32.8-55.68c13.37-19.76,28.1-38.4,45.59-54.73,11.84-11.06,24.71-20.7,39.28-27.93,2.14-1.07,4.31-2.09,6.54-3a15.3,15.3,0,0,0,6.28-4.21c1.41-.23,2.85-.4,4.25-.71,6.71-1.47,13.46-2.71,20.27-3.59,7.77-1,15.56-1.81,23.27-3.13a24.09,24.09,0,0,1,14,1.63c23.59,9.83,47.51,18.79,71.67,27.13,4.53,1.57,9.1,3,13.54,4.82,12.83,5.15,23.67,13.2,33,23.29,3.81,4.1,7.5,8.3,11.22,12.49a21.09,21.09,0,0,0,6.37,5,60.43,60.43,0,0,1,28.61,29.83,180.29,180.29,0,0,0,24.11,38.51c8.85,10.93,17.86,21.74,26.29,33,9,12,18.16,24,28.08,35.25,5.7,6.49,11.49,12.9,18.11,18.48a41.74,41.74,0,0,0,4.58,3.47c4.19,2.64,9.45-.54,9.9-4.06a24.79,24.79,0,0,0,.41-4.27c-.22-4.79-.28-9.62-.95-14.35a59.91,59.91,0,0,1,2.5-27c2.12-6.7,4.38-13.35,6.45-20.07,3.29-10.68,6.47-21.4,9.7-32.1.78-2.6,1.48-5.26,3.79-7a6.48,6.48,0,0,1,1.42.24c8,3.45,15.38,7.82,21.3,14.36a20,20,0,0,1,5.1,9.11c1.13,5.17,3,10.09,4.66,15.1,1.46,4.56,2.87,9.15,4.3,13.72a4.44,4.44,0,0,0,2.58,3.19c15.83,6.51,26.83,18.12,34.57,33.09q20.05,38.76,40,77.56c9.18,17.75,17.89,35.73,26.57,53.73,4.59,9.49,9.07,19,13,28.83a103.76,103.76,0,0,1,3.51,9.94,18.41,18.41,0,0,0,2.42,5.15,224.39,224.39,0,0,1,12.63,20.93c1.25,2.41,2.41,4.87,3.5,7.36a23.4,23.4,0,0,1,2,9.78c-.1,5.76,0,11.52,0,17.27,0,5-.42,9.93-2.4,14.57-.72,1.68.77,2.66.81,4a7,7,0,0,0-1.93,3.78,45.88,45.88,0,0,1-5.93,14.49,8.49,8.49,0,0,0-.68,7.8,34.16,34.16,0,0,0,1.7,3.94q4.73,9.38,8.53,19.18a177.88,177.88,0,0,1,6.36,18,53.6,53.6,0,0,1-10.05-.35c-.95-.14-1.91-.15-2.87-.2-8.46-.43-16.94-.71-25.38-1.33-8.76-.65-17.5-1.61-26.24-2.48q-10.49-1-21-2.22c-5.4-.62-10.79-1.3-16.16-2.12-9.15-1.39-18.27-3-27.43-4.39-11.21-1.71-22.32-4-33.42-6.27-23.32-4.78-46.41-10.54-69.29-17.12q-36.85-10.62-72.76-24.16a958,958,0,0,1-111.33-50.37q-34.33-18.23-67-39.26-34.15-21.87-66.3-46.61-20-15.33-39.09-31.76c-11.19-9.56-22.06-19.47-32.87-29.45-9.3-8.58-17.64-18.09-26.15-27.43q-11.14-12.23-21.72-25c-6.42-7.76-12.73-15.62-19.1-23.42-1.1-1.35-1.93-2.95-3.53-3.83C260.68,1507.43,260.6,1507.1,260.53,1506.76Z" transform="translate(88.17 31.05)"/><path class="cls-8" d="M1634.4,1495.42c-.08,2.3-1.11,4.31-2,6.34-4.62,10.26-10.37,19.79-18.42,27.76a5.43,5.43,0,0,0-1.81,4.67c.47,5.56.82,11.13,1.22,16.69l-.27,1.08a14.3,14.3,0,0,0-2.49,2.2c-2.6,3.69-6.12,6.53-9,9.94-7.93,9.45-16.93,17.85-25.72,26.45-5.35,5.23-11.13,10-16.71,15-3.57,3.19-7.11,6.41-10.69,9.58-2.62,2.33-5.24,4.67-8,6.89-8.62,7.08-17.19,14.22-26,21.11-7.76,6.11-15.72,12-23.67,17.84-14,10.33-28.23,20.3-42.85,29.71-10.87,7-21.76,13.94-32.84,20.58-10,6-20.25,11.52-30.39,17.27-13.9,7.87-28.15,15.07-42.49,22.11a25.12,25.12,0,0,1-2.68,1c1.32-5,3.82-9.46,5.58-14.25,1.38-3.74,3-7.4,4.23-11.2,2.43-7.64,6.72-14.1,12-20,1.4-1.54,2.83-3.06,4.32-4.5a5.11,5.11,0,0,0,1.75-4.25c-.39-6.69.11-13.43-.83-20.11a26.66,26.66,0,0,1-.12-3.35c0-7,0-14.08-.13-21.11-.17-7.21.8-14.35,1-21.54a25.24,25.24,0,0,1,.55-3.3,23.85,23.85,0,0,0,.06-8.59c-1.34-7.22-2.15-14.5-2.89-21.81-.56-5.59-.43-11.19-1-16.73a98,98,0,0,1-.36-18.19c.61-7.17.57-14.35,1.32-21.51,1-9.55,2.49-19,4.21-28.4.43-2.35,1.3-4.64,1.6-7a7.85,7.85,0,0,1,3.49-5.46c15.26-11.64,30.56-23.22,47.92-31.65a8.94,8.94,0,0,0,3.83-3.45c1.54-2.43,3.22-4.78,5-7s3.89-4.69,6.85-5.85a11.82,11.82,0,0,0,4.09-3.26,76.2,76.2,0,0,0,12.47-18.1c8.63-17.14,17.17-34.32,25.76-51.47a81.68,81.68,0,0,1,17.18-23.48c4.48-4.18,9.47-7.47,15.64-8.87a20.51,20.51,0,0,1,12.63,1.28c1.33.54,2.6,1.21,3.91,1.81.14,2.79-.83,5.38-1.62,8-2.74,8.85-5.62,17.65-8.49,26.46a96.31,96.31,0,0,0-4.26,17.18,92.42,92.42,0,0,1-4,17.24A158.61,158.61,0,0,1,1503,1439c-6.64,13.5-11.79,27.61-17.24,41.6a17.48,17.48,0,0,0-.73,2.78,1.46,1.46,0,0,0,.63,1.66c.52.32.87-.16,1.18-.45,5-4.79,10.65-8.67,16.32-12.56,6.2-4.24,12.71-8.2,17.71-13.85s11.23-10,16.3-15.52c.32-.35.63-.72,1-1.08a107.53,107.53,0,0,0,14.79-21.19c7.84-14.49,16.65-28.39,25.4-42.33a41.09,41.09,0,0,0,4-7.59c1.48.1,2.29-.76,3-1.91a19.64,19.64,0,0,1,8.67-7.27c2.19-1,4.31-2.1,6.47-3.14,7-3.38,14.54-3.78,22-2.69,5,.72,9.62,3.14,14,6,5.48,3.55,7.76,8.68,8.28,14.83a52.46,52.46,0,0,1-1.49,15.63,74.13,74.13,0,0,1-6.38,17.46c-7.7,15.24-15.51,30.42-23.27,45.63-.66,1.28-1.28,2.57-1.91,3.86-1,2-.44,4.37,2.57,4.92,3.9.72,7.73,1.85,11.59,2.82a5.5,5.5,0,0,1,4.45,4.46c.78,4.22,1.25,8.49,2.06,12.69C1633.18,1487.58,1633.16,1491.61,1634.4,1495.42Z" transform="translate(88.17 31.05)"/><path class="cls-9" d="M584,145.21c-3-.17-5.6.94-8.21,2.19-16,7.65-31.79,15.62-47.34,24.11q-40.57,22.14-78.87,48.05-17.83,12.09-35.1,25A5.83,5.83,0,0,1,412,246a8.71,8.71,0,0,1,1.5-4,188.84,188.84,0,0,1,12.65-20.29c1.85-2.59,4.17-4.81,6.21-7.27a210.56,210.56,0,0,1,23.42-23.9,241.15,241.15,0,0,1,27.5-20.67,164.69,164.69,0,0,1,55.79-23.12,85,85,0,0,1,19.42-2.26,24.42,24.42,0,0,0,4.74-.47,14.92,14.92,0,0,1,5.24-.12,52.74,52.74,0,0,0,15.26.3C583.8,144.54,583.88,144.87,584,145.21Z" transform="translate(88.17 31.05)"/><path class="cls-10" d="M952.44,1845.51a177.88,177.88,0,0,0-6.36-18q-3.83-9.8-8.53-19.18a34.16,34.16,0,0,1-1.7-3.94,8.49,8.49,0,0,1,.68-7.8,45.88,45.88,0,0,0,5.93-14.49,7,7,0,0,1,1.93-3.78c2.65,2.16,4.33,5.11,6.31,7.81q15,20.47,29.91,41,4.65,6.39,9.23,12.84c.82,1.17,1.49,2.44,2.24,3.67-7.11.9-14.28.69-21.38,1.25-5.71.46-11.41.6-17.12.71Z" transform="translate(88.17 31.05)"/><path class="cls-1" d="M1337.69,1753.58a1.09,1.09,0,0,1,1-.9A1.13,1.13,0,0,1,1337.69,1753.58Z" transform="translate(88.17 31.05)"/><path class="cls-8" d="M768.41,1440.4c-2.31,1.78-3,4.44-3.79,7-3.23,10.7-6.41,21.42-9.7,32.1-2.07,6.72-4.33,13.37-6.45,20.07a59.91,59.91,0,0,0-2.5,27c.67,4.73.73,9.56.95,14.35a24.79,24.79,0,0,1-.41,4.27c-.45,3.52-5.71,6.7-9.9,4.06a41.74,41.74,0,0,1-4.58-3.47c-6.62-5.58-12.41-12-18.11-18.48-9.92-11.3-19.08-23.21-28.08-35.25-8.43-11.26-17.44-22.07-26.29-33a180.29,180.29,0,0,1-24.11-38.51,60.43,60.43,0,0,0-28.61-29.83,21.09,21.09,0,0,1-6.37-5c-3.72-4.19-7.41-8.39-11.22-12.49-9.36-10.09-20.2-18.14-33-23.29-4.44-1.78-9-3.25-13.54-4.82-24.16-8.34-48.08-17.3-71.67-27.13a24.09,24.09,0,0,0-14-1.63c-7.71,1.32-15.5,2.12-23.27,3.13-6.81.88-13.56,2.12-20.27,3.59-1.4.31-2.84.48-4.25.71a37.12,37.12,0,0,1,1.88-3.31,584.12,584.12,0,0,0,31.67-50.24,428,428,0,0,0,23.95-49,273.5,273.5,0,0,0,12.5-38.69c1.63-6.66,3.56-13.25,5.23-19.9,3.52-14.09,6.41-28.3,8.51-42.67,1.2-8.21,2.51-16.39,3.52-24.62.87-7.12,1.41-14.28,2-21.43a9.13,9.13,0,0,1,.84-3.69,356.35,356.35,0,0,0,30-28.31,176,176,0,0,0,11.43-13.57c1.15-1.54,2.23-3.13,3.34-4.69a18.3,18.3,0,0,0,3.69-13.06,10.1,10.1,0,0,1,2.86,0c4.79,1.49,9.9.13,14.67,1.72,5.28-.36,10.42,1.39,15.7,1.08a5.78,5.78,0,0,1,1.44.08,157.08,157.08,0,0,0,17,1.76,5.85,5.85,0,0,1,3.85,1.59c3.85,3.58,7.76,7.1,11.64,10.64,1.05,1,1.92,2.19,3.54,2.25l.51.41-.41-.51c-.49-2.74-2-5-3.43-7.31-3.83-6.31-7.06-12.82-8.31-20.2a60.71,60.71,0,0,0-1.95-7.87c-.4-1.27-.36-2.86-1.81-3.8-2.35,1.16-4.61,2.32-6.91,3.39a23.91,23.91,0,0,1-10.17,2.28c-5.17,0-10.09-1.23-15-2.66A189.5,189.5,0,0,1,544,982.77c-4.77-2.25-9.43-4.7-14.15-7-1.42-.7-2.74-1.68-4.43-1.67a147,147,0,0,1-13.2-22.79,29.49,29.49,0,0,1-3.23-12c-.05-2.4-1.27-4.18-2.58-6a185.54,185.54,0,0,1-23.66-45.35,159.87,159.87,0,0,1-7.83-33.06c-.21-1.75-.28-3.51-.33-5.27Q474,829,473.4,808.34c-.16-5.12-.38-10.23-.58-15.34a12.35,12.35,0,0,1,.9-5.63c6.3-14.12,14-27.29,25.28-38.14a69.45,69.45,0,0,1,14.07-10.76,45.21,45.21,0,0,1,24.3-6.22,48.55,48.55,0,0,1,17.67,4c5.41,2.36,10.74,4.94,16.08,7.48,3.17,1.52,6.29,3.14,9.42,4.74a53.65,53.65,0,0,1,11.73,8.26c4.79,4.37,6.24,9.35,3.67,15.54a126,126,0,0,0-6.61,21.52A135.09,135.09,0,0,0,586,825.71a51.1,51.1,0,0,0,1.84,12.3,35.29,35.29,0,0,0,6.48,12.74c.7.87,1.43,1.72,2.07,2.63a1.44,1.44,0,0,1-.36,2.11c-.88.68-1.85,1.25-2.76,1.89a29.86,29.86,0,0,0-6,5.47,18.78,18.78,0,0,0-4.5,11.87c-.12,6.06,2.14,10.9,7.26,14.27,11.19,7.35,23.07,13.08,36.39,15.39a67.38,67.38,0,0,0,26.69-.53A46.77,46.77,0,0,0,671.5,895c1.14-.88,2.27-1.78,3.35-2.73a4.87,4.87,0,0,1,5.72-1c4.22,1.9,7.78.37,11-2.48,1.07-1,2-2,3.06-3a13.19,13.19,0,0,1,9.95-4c1.44,0,2.89.07,4.32.23a31.79,31.79,0,0,0,17.67-3.31,72.86,72.86,0,0,0,16.25-11,100.61,100.61,0,0,0,14.41-16,210.19,210.19,0,0,0,24.58-44.9c.61-1.48,1.23-3,1.88-4.41a3.53,3.53,0,0,1,3.88-2.18,28.46,28.46,0,0,1,3.32.44,158,158,0,0,0,26.17,3,104.38,104.38,0,0,0,34.59-4.29,64.53,64.53,0,0,0,9.79-3.88c12.59-6.25,20.8-16.18,24.82-29.61a16.89,16.89,0,0,0,.43-1.87c.53-3.25,2.4-5.4,5.23-7a74.3,74.3,0,0,0,17.67-14.63c2.08-2.29,3.85-4.67,4.51-7.77,1-4.59,4.12-6.66,8.55-7,2.23-.17,4.48-.12,6.71-.07,15.2.33,30.4.15,45.59-.33,13.11-.41,26.19-1.31,39.26-2.49,13.86-1.25,27.67-2.87,41.4-5.08,33-5.31,65.6-12.58,96.82-25a230.7,230.7,0,0,0,51.27-27.87,137.1,137.1,0,0,0,25.82-24.25c3-3.68,3.91-3.79,8-1.17,3.36,2.16,6.69,4.38,10,6.57,1.54,4.4,1.92,9,2.69,13.58,1.38,8.17,2.55,16.38,3.64,24.59.61,4.58.79,9.22,1.29,13.81a206.11,206.11,0,0,1,.86,23.44,71.57,71.57,0,0,1-1.25,11.89,125.18,125.18,0,0,0-1.73,17.6,85.38,85.38,0,0,1-2.72,19.85,44.25,44.25,0,0,1-11.47,20.14c-9,9-17.3,18.79-25.7,28.41-7.36,8.42-14.6,16.93-21.52,25.71a244,244,0,0,0-17.33,24.09c-1.41,2.31-2.61,4.76-3.83,7.18a12,12,0,0,0-1.12,7.84c.79,4.54.69,9.23,1.41,13.79,1.08,6.81.57,13.71,1.46,20.52a21.12,21.12,0,0,1-.14,6.2,7.09,7.09,0,0,0,.91,5c1,1.66,1.9,3.33,2.78,5s2.21,3.53,2.6,5.62c-3.39-.84-6.75-1.79-10.17-2.49-5.53-1.15-10.39,0-14.35,4.35a31,31,0,0,0-5.11,7.46,99.65,99.65,0,0,0-6.39,18.47,169.15,169.15,0,0,0-5.34,30.45,4.35,4.35,0,0,1-2.76,4.1c-3,1.24-4.09,3.77-4.89,6.63-1.3,4.63-.91,9.47-1.8,14.16a5.93,5.93,0,0,0,.24,2.83,18.56,18.56,0,0,1,.54,5.69c0,2.87-.08,5.75.13,8.61.36,4.73,2.11,7.67,6.61,8.8,1.54.39,3,1,4.58,1.35,8.08,1.68,16.18,3.28,24.27,4.91-1.24,3.51-.23,7,.47,10.37,1.83,8.75,4,17.43,5.81,26.18,1.24,5.94,2.5,11.89,2.47,18,0,1.59-.1,3.19-.16,4.79a32,32,0,0,0-8.49,1.14,88.34,88.34,0,0,0-11.53,3,205.17,205.17,0,0,0-23.07,10.44c-6.94,3.58-13.76,7.39-20.61,11.14-7.69,4.21-15.34,8.48-23,12.71-1.24.68-2.59,1.2-3.79,1.95-1.55,1-1.84,2.52-1.58,4.21a3.09,3.09,0,0,0,2.48,2.6c1.07.3,2.12.67,3.21.92,8.82,2,17.7,3.9,26.47,6.17,4.12,1.07,8,1.78,11.91-.43,3,5.85,4.39,12.19,5.84,18.52.18.77.23,1.57.4,2.33,1.37,5.93-.46,11-4.37,15.34-1.89,2.11-3.77,4.32-6.55,5.38a12,12,0,0,0-3.33-.07,11.44,11.44,0,0,1-6.09,0,10,10,0,0,0-2.39-.1,33.81,33.81,0,0,1-14.72-3.62,68.73,68.73,0,0,1-8.26-4.82c-.47-.31-1-.9-1.58-.13a3,3,0,0,0,1.12,2.53,57.22,57.22,0,0,0,18.34,14.34c2.15,1,4.28,2.09,6.41,3.14-2.72,3.86-6.66,6.42-10.25,9.31a128.48,128.48,0,0,1-14.67,9.94c-6.59,4-13,8.16-18.33,13.82-1,1-1.93,2.14-2.84,3.24a12.14,12.14,0,0,0-3,9.25c.65,8-1.39,15.51-4.72,22.74a84.4,84.4,0,0,1-15.74,22.78c-9,9.45-19.38,17.16-30.41,24a54.08,54.08,0,0,1-27.72,8.07c-13.12.33-25.74-2-38.19-5.81a240.92,240.92,0,0,1-30.76-12.1c-13.91-6.52-27.31-14-40.57-21.73a1.05,1.05,0,0,0-1.05-.78v-.07c-.55-1.6-1.95-2.51-3.06-3.62-4.76-4.74-9.75-9.22-14.54-13.91-16.93-16.54-33.66-33.3-50.33-50.11-12.15-12.26-24.11-24.7-36.1-37.13-2.43-2.52-4.65-5.26-6.86-8-4.72-5.82-9.23-11.82-14.09-17.52-5.6-6.55-11.47-12.86-17.26-19.25-4.18-4.61-8.42-9.17-12.64-13.75l-1-1.07c-4.78-5.36-9.42-10.85-14.38-16-6.68-7-15.09-11.73-23-17a3.43,3.43,0,0,0-1.83-.4,1.89,1.89,0,0,0-1.14.67.92.92,0,0,0,0,.88c1.2,1.69,2.4,3.38,3.69,5,5.57,7,11,14.07,16.84,20.85s11.59,14,17.39,21c1.93,2.34,3.92,4.63,5.9,6.92,2.61,3,5.25,6,7.86,9,3.43,4,6.86,8,10.25,12,4.13,4.87,8.43,9.6,12.26,14.69,4.79,6.37,9.2,13,13.73,19.61,5.51,8,11,16.1,16.47,24.12,2,2.89,4.14,5.67,6.19,8.52,3.72,5.19,7.41,10.39,11.14,15.58a25,25,0,0,1,3.76,8.19c4.09,14.91,8.35,29.78,12.61,44.64.34,1.18.38,2.59,1.58,3.41-.64,2.54-2.31,4.53-3.69,6.64-8.38,12.8-16.64,25.69-25.59,38.11a22.93,22.93,0,0,0-3.58,7.73c-3.78,14.32-7.57,28.63-10.74,43.1-1.15,5.28-2.29,10.58-3.3,15.89C767.24,1436.85,766.66,1438.84,768.41,1440.4ZM1041,864.57a1,1,0,0,0-.18-.34c0-.05-.18,0-.27-.05l.42.42a5.69,5.69,0,0,0,.91,3.65c2.82,5.19,5.56,10.42,8.47,15.56,2.2,3.88,4.62,7.64,7,11.45.57.93,1.27,2.56,2.24,2.1,1.33-.63.39-2.16,0-3.3-1.79-5.81-4.42-11.28-6.84-16.84-2.33-5.35-6.35-9.06-10.81-12.47C1041.73,864.58,1041.34,864.62,1041,864.57ZM573.26,826.26a5.93,5.93,0,0,0-.32-.83c-.06-.11-.27-.14-.41-.21a9.24,9.24,0,0,0,.1.92.53.53,0,0,0,.26.36c.1,0,.25-.15-.39-1.1a13.85,13.85,0,0,0,0-3q-1.85-7.67-3.89-15.28a12.13,12.13,0,0,0-1.42-3c-4.38-7.25-8.93-14.38-15.31-20.1s-13.76-9.72-23-8.73a9.47,9.47,0,0,0-7.26,3.88c-6.77,9.08-13.29,18.33-19.48,27.81a146.53,146.53,0,0,0-9.2,16.23,17.52,17.52,0,0,0-2.08,7.78c.07,14.38,0,28.76.07,43.14,0,.62-.27,1.4.67,2,.81-6.16,1.55-12.13,2.38-18.09.87-6.29,1.81-12.58,2.72-18.86.69-4.73,1.86-9,5-13q9.51-12,19.36-23.67a35.83,35.83,0,0,1,6.75-6.06c2.33-1.65,4.5-2.29,7-.59a17.92,17.92,0,0,0,2.14,1.09c9.88,4.95,18.73,11.54,27.92,17.59a12.52,12.52,0,0,1,4.51,5.48A21.16,21.16,0,0,0,573.26,826.26ZM1094,906.91c-.85.63-.21,1.16.19,1.55a89.68,89.68,0,0,0,9.86,7.59c2.9,2.1,5.87,3.05,9.37,2.12,0-.16.07-.37,0-.47a13.5,13.5,0,0,0-1.21-1.4c-1.77-1.78-1.81-1.87.13-3.07a51.2,51.2,0,0,0,9.08-7,68.29,68.29,0,0,0,12.73-17.88,121.21,121.21,0,0,0,9.6-27,147.73,147.73,0,0,0,3-17c.15-1.3.83-1.65,1.89-1.05.41.24.79.54,1.2.79,2.91,1.75,5.09,1.7,8.58-.19-.9-1.22-2.73-1.39-3.84-3.28,5.78-.14,11.25.51,16.76-2.46-6-2.21-11.57-4.24-17.1-6.23-2-.71-3.93-1.33-5.89-2-.83-.28-1.52-.88-1.42-1.71.34-2.65-1.41-3.16-3.38-3.62-11.35-2.62-22.73-5.15-34.28-6.77a39.5,39.5,0,0,0-12.42-.06c-9.59,1.7-19.16,3.47-28.75,5.17-8.49,1.51-17,3.13-25.62,3.43-3.34.11-6.68.59-10,.91a.85.85,0,0,0-.46.1c-.48.42.66.22-.08.39a19.87,19.87,0,0,0,2.26.89c2.92.81,5.85,1.62,8.79,2.33a2.62,2.62,0,0,1,2.21,2.19c.19.93.46,1.85.67,2.79,1.29,5.76,2.61,11.52,3.82,17.3a5.09,5.09,0,0,0,1.72,3.29c.65,2,1.37,3.9,1.93,5.89a33.21,33.21,0,0,0,10.25,16.36c4.8,4.21,8.83,9.13,13.47,13.46,1.16,1.09,2.23,2.28,3.45,3.31C1084.92,899.39,1089.44,903.14,1094,906.91Zm-73.87-156.19c2.78.84,4.89,1.55,7,2.13,12.61,3.42,25.18,4,37.72-.41a21.74,21.74,0,0,1,4.66-1.07c5.54-.68,11.1-1.27,16.66-1.88,13-1.42,26.06-2.72,39-4.34a11.76,11.76,0,0,1,8.13,1.75c12.46,7.65,26.11,11,40.64,10.82,2.52,0,4.4.18,5,3a5,5,0,0,0,.85,1.7,4.35,4.35,0,0,0,5.42,1.89,18.07,18.07,0,0,0,4.25-2.15c4.88-3.36,8-8.14,10.65-13.33a5.38,5.38,0,0,0,.39-1.37,2.42,2.42,0,0,0-1.56-3.09,22.18,22.18,0,0,0-3.21-.91c-1.15-.27-1.47-.9-1.34-2.07.63-5.29.12-6-5-7.15-.32-.07-.63-.13-1-.18-6.63-1-13.25-2-19.9-2.93a207.08,207.08,0,0,1-26.35-4.89c-4.46-1.21-9-2.33-13.5-3.2a107.91,107.91,0,0,0-28.12-2.08c-4.46.32-8.91.83-13.34,1.39a124.74,124.74,0,0,0-44.45,14.19c-.84.46-1.7.89-2.51,1.4a4.05,4.05,0,0,0-2.2,3.95c.05.59.21,1.29-.91,1.74C1030.77,742.94,1025,744.73,1020.08,750.72Zm148,41.39c-1.9-1.58-4-1.9-6-2.33a173.9,173.9,0,0,0-17.33-3.21c-5.84-.67-11.63-1.76-17.54-1.7a11.88,11.88,0,0,1-3.33-.15c-3.14-.92-6.33-.71-9.51-.69a124,124,0,0,0-16.22.68c-4.06.56-8.25.35-12.32,1.18-2,.41-4,.88-6,1.38-.21.06-.38.45-.49.73s0,.59.48.6c1.43,0,2.87.09,4.3.09q27.3,0,54.61,0a24.49,24.49,0,0,1,13,4c3.19,1.95,4.08,4.69,3.36,8.17-.1.46-.26.92-.4,1.37-1.52,4.69-2.14,9.64-4,14.23-.15.37,0,.89.11,1.53.51-.4,1-.6,1.21-1a118.14,118.14,0,0,0,9-18.43C1162.26,795.28,1164.16,792.77,1168.12,792.11ZM579.5,928.68c.87-1.14,1.28-1.61,1.61-2.13,1.1-1.76,2.19-3.52,3.23-5.31s.67-2.94-1.32-3.7c-.89-.34-1.81-.63-2.73-.9-7.19-2.07-14.4-4.08-21.58-6.21a57.76,57.76,0,0,0-16.91-2.6c-3.68,0-7.35,0-11,0a24.71,24.71,0,0,0-3.33.21,1.64,1.64,0,0,0-1.09.79c-.22.46.2.86.66,1,1.64.61,3.27,1.26,4.94,1.77,11.59,3.5,23.24,6.76,35,9.61,3.56.86,7.08,1.88,10.63,2.77a2.14,2.14,0,0,1,1.72,2.47C579.29,927,579.38,927.44,579.5,928.68Z" transform="translate(88.17 31.05)"/><path class="cls-11" d="M1582.36,1370.43a41.09,41.09,0,0,1-4,7.59c-8.75,13.94-17.56,27.84-25.4,42.33a107.53,107.53,0,0,1-14.79,21.19c-.32.36-.63.73-1,1.08-5.07,5.55-11.28,9.86-16.3,15.52s-11.51,9.61-17.71,13.85c-5.67,3.89-11.34,7.77-16.32,12.56-.31.29-.66.77-1.18.45a1.46,1.46,0,0,1-.63-1.66,17.48,17.48,0,0,1,.73-2.78c5.45-14,10.6-28.1,17.24-41.6a158.61,158.61,0,0,0,8.36-19.86,92.42,92.42,0,0,0,4-17.24,96.31,96.31,0,0,1,4.26-17.18c2.87-8.81,5.75-17.61,8.49-26.46.79-2.57,1.76-5.16,1.62-8q8.31-21.94,16.62-43.89,16.93-44.85,33.85-89.71l29.59-78.51q16.25-43.07,32.47-86.13,15.64-41.51,31.3-83c5.24-13.91,10.6-27.77,15.67-41.74,2.45-6.77,7.24-11.24,13.27-14.49a23,23,0,0,1,19-1.29,49.46,49.46,0,0,1,10.16,5.34c2,1.25,2.9,3.32,3.61,5.5,1.79,5.43,1.83,11,1.22,16.6-1.68,15.51-6,30.4-11.24,45-11.18,31-22.6,61.83-33.89,92.76q-18.73,51.33-37.41,102.7-20.68,56.76-41.35,113.52c-1.26,3.45-2.38,6.94-3.56,10.42a32.15,32.15,0,0,0-12.06,17.8c-1.84,6.91-4.12,13.71-6.54,20.44a227.56,227.56,0,0,0-7.54,24.61A14.09,14.09,0,0,0,1582.36,1370.43Z" transform="translate(88.17 31.05)"/><path class="cls-10" d="M1163.9,1057.59c-8.09-1.63-16.19-3.23-24.27-4.91-1.55-.32-3-1-4.58-1.35-4.5-1.13-6.25-4.07-6.61-8.8-.21-2.86-.09-5.74-.13-8.61a18.56,18.56,0,0,0-.54-5.69,5.93,5.93,0,0,1-.24-2.83c.89-4.69.5-9.53,1.8-14.16.8-2.86,1.88-5.39,4.89-6.63a4.35,4.35,0,0,0,2.76-4.1,169.15,169.15,0,0,1,5.34-30.45,99.65,99.65,0,0,1,6.39-18.47,31,31,0,0,1,5.11-7.46c4-4.31,8.82-5.5,14.35-4.35,3.42.7,6.78,1.65,10.17,2.49a6.26,6.26,0,0,1,1.81,2.77q5.47,10.92,10.87,21.89a33.57,33.57,0,0,1,1.7,4,77.08,77.08,0,0,0,8,16.23,91.86,91.86,0,0,1,12.53,30.87c.8,4,.53,8,.57,11.93a4.13,4.13,0,0,1-1.51,2.88,64.62,64.62,0,0,1-16.22,12.54c-4.4,2.33-8.86,4.45-13.89,4.94a12.67,12.67,0,0,0-6.44,2.81C1172.26,1055.72,1168.41,1057.55,1163.9,1057.59Z" transform="translate(88.17 31.05)"/><path class="cls-10" d="M1582.36,1370.43a14.09,14.09,0,0,1,.61-4.22,227.56,227.56,0,0,1,7.54-24.61c2.42-6.73,4.7-13.53,6.54-20.44a32.15,32.15,0,0,1,12.06-17.8q8.91,3.44,17.84,6.87a26.31,26.31,0,0,0,2.71.94,6.17,6.17,0,0,1,4.45,4.56q1.67,5.51,3.6,10.92,4.85,13.51,9.8,27c3.94,10.8,7.55,21.71,10.71,32.76a172.71,172.71,0,0,1,4.37,17.64c.43,2.51.91,5,1.32,7.53.5,3.09-.42,6.07-1.12,9-4.08,16.75-8.71,33.35-15.4,49.29-2.72,6.47-5.46,13-9.26,18.91-1.37,2.14-2.49,4.44-3.73,6.67-1.24-3.81-1.22-7.84-2-11.74-.81-4.2-1.28-8.47-2.06-12.69a5.5,5.5,0,0,0-4.45-4.46c-3.86-1-7.69-2.1-11.59-2.82-3-.55-3.56-2.91-2.57-4.92.63-1.29,1.25-2.58,1.91-3.86,7.76-15.21,15.57-30.39,23.27-45.63a74.13,74.13,0,0,0,6.38-17.46,52.46,52.46,0,0,0,1.49-15.63c-.52-6.15-2.8-11.28-8.28-14.83-4.36-2.82-9-5.24-14-6-7.46-1.09-15-.69-22,2.69-2.16,1-4.28,2.16-6.47,3.14a19.64,19.64,0,0,0-8.67,7.27C1584.65,1369.67,1583.84,1370.53,1582.36,1370.43Z" transform="translate(88.17 31.05)"/><path class="cls-10" d="M814.49,1323.56c-1.2-.82-1.24-2.23-1.58-3.41-4.26-14.86-8.52-29.73-12.61-44.64a25,25,0,0,0-3.76-8.19c-3.73-5.19-7.42-10.39-11.14-15.58-2-2.85-4.2-5.63-6.19-8.52-5.52-8-11-16.1-16.47-24.12-4.53-6.58-8.94-13.24-13.73-19.61-3.83-5.09-8.13-9.82-12.26-14.69-3.39-4-6.82-8-10.25-12-2.61-3-5.25-6-7.86-9-2-2.29-4-4.58-5.9-6.92-5.8-7-11.47-14.1-17.39-21S684.08,1122,678.51,1115c-1.29-1.62-2.49-3.31-3.69-5a.92.92,0,0,1,0-.88,1.89,1.89,0,0,1,1.14-.67,3.43,3.43,0,0,1,1.83.4c8,5.31,16.37,10.05,23,17,5,5.19,9.6,10.68,14.38,16l1,1.07c4.22,4.58,8.46,9.14,12.64,13.75,5.79,6.39,11.66,12.7,17.26,19.25,4.86,5.7,9.37,11.7,14.09,17.52,2.21,2.72,4.43,5.46,6.86,8,12,12.43,24,24.87,36.1,37.13,16.67,16.81,33.4,33.57,50.33,50.11,4.79,4.69,9.78,9.17,14.54,13.91,1.11,1.11,2.51,2,3.06,3.62l-1.72,0-1.17.62c-7.48.34-15,.92-22.45,1-5.88,0-11.78-.49-17.64-1a3.26,3.26,0,0,0-3.57,1.6c-2,3.26-4,6.54-6.05,9.76C817.24,1320.09,816.4,1322.22,814.49,1323.56Z" transform="translate(88.17 31.05)"/><path class="cls-11" d="M936.28,161.17a2.1,2.1,0,0,1-2.19.47c-11.27-2.72-22.53-5.45-33.8-8.12-9.58-2.27-19.18-4.47-28.76-6.72-10.82-2.53-21.62-5.15-32.47-7.58-9.76-2.19-19.48-4.55-29.22-6.82-9.43-2.2-18.87-4.37-28.3-6.58-9.74-2.27-19.52-4.38-29.21-6.87-5.68-1.46-11.44-2.64-17.2-3.81a37.76,37.76,0,0,0-5.23-.36c2.27-1.31,4.91-1.3,7.36-1.73,6.43-1.13,12.94-1.86,19.41-2.74a11.4,11.4,0,0,1,1.43-.06c11,0,22-.23,33,.08a146.45,146.45,0,0,1,18.07,1.9,307.86,307.86,0,0,1,55.59,13.9c10.69,3.75,21.24,7.86,31.54,12.58,3.76,1.72,7.33,3.87,11,5.86q13.21,7.26,26.4,14.58C934.66,159.67,935.81,160,936.28,161.17Z" transform="translate(88.17 31.05)"/><path class="cls-10" d="M1124.47,1170.8c-3.91,2.21-7.79,1.5-11.91.43-8.77-2.27-17.65-4.13-26.47-6.17-1.09-.25-2.14-.62-3.21-.92a3.09,3.09,0,0,1-2.48-2.6c-.26-1.69,0-3.25,1.58-4.21,1.2-.75,2.55-1.27,3.79-1.95,7.68-4.23,15.33-8.5,23-12.71,6.85-3.75,13.67-7.56,20.61-11.14a205.17,205.17,0,0,1,23.07-10.44,88.34,88.34,0,0,1,11.53-3,32,32,0,0,1,8.49-1.14,17.41,17.41,0,0,1-.89,7.5c-1.65,5.14-2.66,10.46-4.86,15.43a50.35,50.35,0,0,1-4.73,8.8,19.44,19.44,0,0,1-10.89,8,105,105,0,0,0-22.46,9.19,22.5,22.5,0,0,1-2.13,1.09A3.31,3.31,0,0,0,1124.47,1170.8Z" transform="translate(88.17 31.05)"/><path class="cls-10" d="M1109.29,1223.6c-2.13-1-4.26-2.12-6.41-3.14a57.22,57.22,0,0,1-18.34-14.34,3,3,0,0,1-1.12-2.53c.59-.77,1.11-.18,1.58.13a68.73,68.73,0,0,0,8.26,4.82,33.81,33.81,0,0,0,14.72,3.62,10,10,0,0,1,2.39.1,11.44,11.44,0,0,0,6.09,0,12,12,0,0,1,3.33.07A54.87,54.87,0,0,1,1109.29,1223.6Z" transform="translate(88.17 31.05)"/><path class="cls-11" d="M939.57,162.69a1.43,1.43,0,0,1-1.31-.67A1.35,1.35,0,0,1,939.57,162.69Z" transform="translate(88.17 31.05)"/><path class="cls-2" d="M868.14,1307l1.17-.62A1.22,1.22,0,0,1,868.14,1307Z" transform="translate(88.17 31.05)"/><path class="cls-2" d="M871,1306.35a1.05,1.05,0,0,1,1.05.78Z" transform="translate(88.17 31.05)"/><path class="cls-10" d="M525.44,974.06c1.69,0,3,1,4.43,1.67,4.72,2.34,9.38,4.79,14.15,7a189.5,189.5,0,0,0,27.09,10.71c4.89,1.43,9.81,2.69,15,2.66a23.91,23.91,0,0,0,10.17-2.28c2.3-1.07,4.56-2.23,6.91-3.39,1.45.94,1.41,2.53,1.81,3.8a60.71,60.71,0,0,1,1.95,7.87c1.25,7.38,4.48,13.89,8.31,20.2,1.39,2.29,2.94,4.57,3.43,7.31l-.1.1c-1.62-.06-2.49-1.3-3.54-2.25-3.88-3.54-7.79-7.06-11.64-10.64a5.85,5.85,0,0,0-3.85-1.59,157.08,157.08,0,0,1-17-1.76,5.78,5.78,0,0,0-1.44-.08c-5.28.31-10.42-1.44-15.7-1.08-4.77-1.59-9.88-.23-14.67-1.72a10.1,10.1,0,0,0-2.86,0c-6.93-11.6-13.4-23.48-21.39-34.42A11.64,11.64,0,0,1,525.44,974.06Z" transform="translate(88.17 31.05)"/><path class="cls-12" d="M1020.08,750.72c4.89-6,10.69-7.78,17.12-7.05,1.12-.45,1-1.15.91-1.74a4.05,4.05,0,0,1,2.2-3.95c.81-.51,1.67-.94,2.51-1.4a124.74,124.74,0,0,1,44.45-14.19c4.43-.56,8.88-1.07,13.34-1.39a107.91,107.91,0,0,1,28.12,2.08c4.54.87,9,2,13.5,3.2a207.08,207.08,0,0,0,26.35,4.89c6.65.9,13.27,2,19.9,2.93.32,0,.63.11,1,.18,5.09,1.16,5.6,1.86,5,7.15-.13,1.17.19,1.8,1.34,2.07a22.18,22.18,0,0,1,3.21.91,2.42,2.42,0,0,1,1.56,3.09,5.38,5.38,0,0,1-.39,1.37c-2.62,5.19-5.77,10-10.65,13.33a18.07,18.07,0,0,1-4.25,2.15,4.35,4.35,0,0,1-5.42-1.89,5,5,0,0,1-.85-1.7c-.57-2.86-2.45-3.07-5-3-14.53.18-28.18-3.17-40.64-10.82a11.76,11.76,0,0,0-8.13-1.75c-13,1.62-26,2.92-39,4.34-5.56.61-11.12,1.2-16.66,1.88a21.74,21.74,0,0,0-4.66,1.07c-12.54,4.43-25.11,3.83-37.72.41C1025,752.27,1022.86,751.56,1020.08,750.72Z" transform="translate(88.17 31.05)"/><path class="cls-6" d="M1051.34,856.57a5.09,5.09,0,0,1-1.72-3.29c-1.21-5.78-2.53-11.54-3.82-17.3-.21-.94-.48-1.86-.67-2.79a2.62,2.62,0,0,0-2.21-2.19c-2.94-.71-5.87-1.52-8.79-2.33a19.87,19.87,0,0,1-2.26-.89c.74-.17-.4,0,.08-.39a.85.85,0,0,1,.46-.1c3.34-.32,6.68-.8,10-.91,8.66-.3,17.13-1.92,25.62-3.43,9.59-1.7,19.16-3.47,28.75-5.17a39.5,39.5,0,0,1,12.42.06c11.55,1.62,22.93,4.15,34.28,6.77,2,.46,3.72,1,3.38,3.62-.1.83.59,1.43,1.42,1.71,2,.66,3.94,1.28,5.89,2,5.53,2,11,4,17.1,6.23-5.51,3-11,2.32-16.76,2.46,1.11,1.89,2.94,2.06,3.84,3.28-3.49,1.89-5.67,1.94-8.58.19-.41-.25-.79-.55-1.2-.79-1.06-.6-1.74-.25-1.89,1.05a147.73,147.73,0,0,1-3,17,121.21,121.21,0,0,1-9.6,27,68.29,68.29,0,0,1-12.73,17.88,51.2,51.2,0,0,1-9.08,7c-1.94,1.2-1.9,1.29-.13,3.07a13.5,13.5,0,0,1,1.21,1.4c.08.1,0,.31,0,.47-3.5.93-6.47,0-9.37-2.12a89.68,89.68,0,0,1-9.86-7.59c-.4-.39-1-.92-.2-1.55.89.33,1.76.74,2.67,1A1.13,1.13,0,0,0,1098,907c.22-.77.38-1.55.54-2.33,2.09-10.33,4.41-20.6,7.17-30.77,3.72-13.71,7.65-27.36,14.55-39.92.07-.11,0-.31,0-.71-5.54-1.66-11.17-3.32-16.78-5.06a22.41,22.41,0,0,0-7.54-1c-10.23.35-20.4,1.38-30.58,2.29-2.55.23-5.09.48-7.64.72a2.27,2.27,0,0,0-2.25,1.46c-.93,2.88-2.29,5.72-2.65,8.67C1052.17,845.73,1051.28,851.11,1051.34,856.57Z" transform="translate(88.17 31.05)"/><path class="cls-13" d="M1051.34,856.57c-.06-5.46.83-10.84,1.49-16.22.36-3,1.72-5.79,2.65-8.67a2.27,2.27,0,0,1,2.25-1.46c2.55-.24,5.09-.49,7.64-.72,10.18-.91,20.35-1.94,30.58-2.29a22.41,22.41,0,0,1,7.54,1c5.61,1.74,11.24,3.4,16.78,5.06,0,.4.1.6,0,.71-6.9,12.56-10.83,26.21-14.55,39.92-2.76,10.17-5.08,20.44-7.17,30.77-.16.78-.32,1.56-.54,2.33a1.13,1.13,0,0,1-1.43.89c-.91-.25-1.78-.66-2.67-1-4.5-3.77-9-7.52-13.5-11.32-1.22-1-2.29-2.22-3.45-3.31-4.64-4.33-8.67-9.25-13.47-13.46a33.21,33.21,0,0,1-10.25-16.36C1052.71,860.47,1052,858.53,1051.34,856.57Z" transform="translate(88.17 31.05)"/><path class="cls-10" d="M572.5,825.4a20.29,20.29,0,0,1-3-5.49,12.52,12.52,0,0,0-4.51-5.48c-9.19-6-18-12.64-27.92-17.59a17.92,17.92,0,0,1-2.14-1.09c-2.52-1.7-4.69-1.06-7,.59a35.83,35.83,0,0,0-6.75,6.06q-9.89,11.67-19.36,23.67c-3.17,4-4.34,8.32-5,13-.91,6.28-1.85,12.57-2.72,18.86-.83,6-1.57,11.93-2.38,18.09-.94-.61-.67-1.39-.67-2,0-14.38,0-28.76-.07-43.14a17.52,17.52,0,0,1,2.08-7.78,146.53,146.53,0,0,1,9.2-16.23c6.19-9.48,12.71-18.73,19.48-27.81a9.47,9.47,0,0,1,7.26-3.88c9.19-1,16.44,2.88,23,8.73s10.93,12.85,15.31,20.1a12.13,12.13,0,0,1,1.42,3q2,7.62,3.89,15.28A13.85,13.85,0,0,1,572.5,825.4Z" transform="translate(88.17 31.05)"/><path class="cls-10" d="M1168.12,792.11c-4,.66-5.86,3.17-7.07,6.48a118.14,118.14,0,0,1-9,18.43c-.21.37-.7.57-1.21,1-.06-.64-.26-1.16-.11-1.53,1.89-4.59,2.51-9.54,4-14.23.14-.45.3-.91.4-1.37.72-3.48-.17-6.22-3.36-8.17a24.49,24.49,0,0,0-13-4q-27.3.06-54.61,0c-1.43,0-2.87-.06-4.3-.09-.44,0-.63-.23-.48-.6s.28-.67.49-.73c2-.5,4-1,6-1.38,4.07-.83,8.26-.62,12.32-1.18a124,124,0,0,1,16.22-.68c3.18,0,6.37-.23,9.51.69a11.88,11.88,0,0,0,3.33.15c5.91-.06,11.7,1,17.54,1.7a173.9,173.9,0,0,1,17.33,3.21C1164.12,790.21,1166.22,790.53,1168.12,792.11Z" transform="translate(88.17 31.05)"/><path class="cls-10" d="M579.5,928.68c-.12-1.24-.21-1.72-.2-2.19a2.14,2.14,0,0,0-1.72-2.47c-3.55-.89-7.07-1.91-10.63-2.77-11.76-2.85-23.41-6.11-35-9.61-1.67-.51-3.3-1.16-4.94-1.77-.46-.17-.88-.57-.66-1a1.64,1.64,0,0,1,1.09-.79,24.71,24.71,0,0,1,3.33-.21c3.68,0,7.35,0,11,0a57.76,57.76,0,0,1,16.91,2.6c7.18,2.13,14.39,4.14,21.58,6.21.92.27,1.84.56,2.73.9,2,.76,2.39,1.86,1.32,3.7s-2.13,3.55-3.23,5.31C580.78,927.07,580.37,927.54,579.5,928.68Z" transform="translate(88.17 31.05)"/><path class="cls-10" d="M1041,864.57c.32,0,.71,0,.93.18,4.46,3.41,8.48,7.12,10.81,12.47,2.42,5.56,5,11,6.84,16.84.36,1.14,1.3,2.67,0,3.3-1,.46-1.67-1.17-2.24-2.1-2.34-3.81-4.76-7.57-7-11.45-2.91-5.14-5.65-10.37-8.47-15.56a5.69,5.69,0,0,1-.91-3.65Z" transform="translate(88.17 31.05)"/><path class="cls-10" d="M573.26,826.26c-.12.09-.27.27-.37.24a.53.53,0,0,1-.26-.36,9.24,9.24,0,0,1-.1-.92c.14.07.35.1.41.21A5.93,5.93,0,0,1,573.26,826.26Z" transform="translate(88.17 31.05)"/><path class="cls-10" d="M1041,864.6l-.42-.42c.09,0,.22,0,.27.05a1,1,0,0,1,.18.34Z" transform="translate(88.17 31.05)"/><path class="cls-10" d="M618.67,1029.65l.41.51-.51-.41Z" transform="translate(88.17 31.05)"/></g><g id="brain"><path class="cls-14" d="M426.44,473.74c-2.14,8.51-6,16.49-7.65,25.16-.16.81-.44,1.61-.66,2.41-.57,2.08-.66,4.29,1.7,5.05,2.94,1,3.18-1.79,3.58-3.58,2.24-10.28,5.28-20.26,10.26-29.58,16.63-31.16,46.18-29.07,68.43-15.43,21.12,22.24,28.68,48.58,3.42,74.27a84.8,84.8,0,0,1-18.91,14.6c-1.95,1.09-4.35,2.4-3,4.86,1.59,2.93,4,1,6-.12a87,87,0,0,0,15-10.76c1.32-1.18,2.46-2.65,4.8-3.14A68.36,68.36,0,0,1,493.56,582a73.25,73.25,0,0,1-15,13.76c-3.34,2.34-6.72,4.54-11.13,5.23-35.68,5.59-64.3-11.77-80.13-40-.65-1.16-1.33-2.31-1.93-3.5-1-2-2.39-3.58-4.66-2.33s-1.23,3.07-.36,4.8a88.26,88.26,0,0,0,24.59,30.39c1,.8,2,1.67,3.09,2.53-17.5,13.8-44.21,12.39-70.17-8.78-21.38-17.44-21-48.48-4.59-76.89,3.07,4.41,6.05,8.73,9.09,13,1.18,1.66,2.54,3.52,4.84,1.78s.8-3.51-.4-5.14c-7.26-9.85-13.36-20.16-15.9-32.43-4.18-20.2,8.42-34.94,22.44-43.26,2.27-1.35,2.7-.29,3.14,1.75.84,3.9,1.94,7.74,3,11.59.5,1.89,1.48,3.78,3.68,3.19,2.48-.67,2.34-2.84,1.68-4.94-3.11-9.89-5.21-20-5-30.38.47-24.62,14.78-42.85,40.3-51.65,10.53-3.63,11-3.74,13.58,6.78C417.21,392,431.39,403.36,448.2,403c2.15-.05,4.3,0,7.09,0-4.18,14.57-3.42,28.25,8.58,40.31-14.95,2.22-24,12.1-33.42,21.4-4.77,4.7-10.76,5.29-17.55,1.92a53.74,53.74,0,0,1-7.54-4.81c-1.78-1.29-3.5-3.34-5.44-.79s.44,3.94,2.08,5.27c7.15,5.77,15.14,8.88,24.49,7.51Zm-43,32.41c4.16,6.55,7.57,12.23,12,17.18,9.6,10.68,20.83,18.5,35.41,20.58,1.83.27,4,.74,4.51-1.7s-1.21-3.11-3.26-3.41c-13.34-2-24-8.84-32.35-19-9.24-11.2-17.62-22.8-17.64-38.53-.05-30,12.78-50.34,39.54-61.36a76.67,76.67,0,0,1,22.75-5.26c2.08-.18,4.5-.23,4.33-2.91-.19-3-2.76-2.78-5-2.51-1.81.22-3.63.44-5.43.73-19,3.05-35.78,10.38-47.78,26.09-12.54,16.42-15.1,35.44-13.21,55.34.64,6.65,1.18,13.22-.29,19.78-3,13.31-11.1,22.76-22.54,29.69-1.53.93-3.52,1.8-2,4.19,1.32,2.11,2.93,1.55,4.69.49A57.67,57.67,0,0,0,374.46,530C379.43,523.13,381.84,515.32,383.43,506.15Z" transform="translate(88.17 31.05)"/><path class="cls-14" d="M376.25,608.23c5.89-1.85,11.49-.75,16.86-2.1a52.47,52.47,0,0,0,17.67-7.69,4.82,4.82,0,0,1,5.84-.4c16.9,9,34.88,11.38,53.67,8,6.67-1.2,11.88-5.28,16.6-9.59,3.69-3.36,5.57-2.36,8.27.78,8,9.27,17.66,16.08,29.6,19.25a28.61,28.61,0,0,0,8.88,1.19c3.88-.22,6.48,1.34,9.18,3.85,17.89,16.59,30.73,36.17,36.09,60.2,2.67,11.94,3.93,24.08,1.48,36.13-2.22,10.88-5.74,21.43-13,30.25-11.89,14.33-27.56,17.36-45,15.39-16-1.8-29.35-10.19-43-17.67-21.29-11.7-41.69-24.83-59.83-41.12-17.25-15.48-32.34-32.66-39.58-55.31-3.7-11.6-5.2-23.37-.61-35.14C380.49,611.26,379.07,609.64,376.25,608.23Z" transform="translate(88.17 31.05)"/><path class="cls-14" d="M582.67,732.45c3.32,3.57,7,6.9,11.56,8.95,2,.91,1.32,2.05.71,3.62a167.86,167.86,0,0,1-42.14,62.71c-10.36,9.66-22.4,16.54-35.43,22-5.08,2.13-9.68,1.19-14.54.25-9.49-1.84-18.86-4.14-27.75-8-5.26-2.3-5.25-2.64-1.49-6.68a247.72,247.72,0,0,0,26.94-33.89c2.28-3.53,4.47-7.29,4.83-11.38.42-4.77,2.47-4.22,5.86-3.35,8.71,2.23,17.52,3.64,26.63,2.7,21.51-2.22,35-14.36,43-33.79C581.23,734.57,581.2,733.26,582.67,732.45Z" transform="translate(88.17 31.05)"/><path class="cls-14" d="M568.93,643.23c4.05,1,7.21,1.58,10,5.12,11.08,14.07,24.18,26,42.46,29.37,7.05,1.29,11.92,3.45,14.81,10.07a14.73,14.73,0,0,0,4.8,5.66c12.25,8.82,6.06,34.83-6.21,40.91-10.72,5.3-21.74,7.09-33.35,4.2a22.12,22.12,0,0,1-7.61-3.6c-5.68-4.19-9.72-8.26-8.19-17.17,4-23.15-.93-45.26-11.91-66C572.27,649.05,570.7,646.38,568.93,643.23Z" transform="translate(88.17 31.05)"/><path class="cls-14" d="M426.49,473.8l.23-.33-.28.27Z" transform="translate(88.17 31.05)"/><path class="cls-15" d="M687.49,712.78c9.18-1.71,18.19-3.93,26.52-8.35,1-.54,2.12-1,3.09-1.62,1.59-1,4.07-1.87,2.52-4.47-1.32-2.22-3.19-.9-4.82-.11-3.3,1.58-6.5,3.37-9.89,4.75-25.76,10.49-51.93,1.92-66.84-21.6-2-3.1-1.72-4,1.93-4.6,9-1.63,16.94-5.83,24.15-11.42,1.58-1.22,3.7-2.49,1.91-4.78-1.63-2.09-3.29-.36-4.71.71-8.71,6.49-18.14,11.18-29.25,11.59-14.55.53-26.33-5.94-37-15-3.65-3.11-6.79-6.83-10.13-10.3-.77-.8-2.06-1.5-1.44-2.86.52-1.14,1.78-.58,2.71-.66,13.94-1.33,23.88-9.28,32.4-19.57,1.28-1.54,3-3.28.47-5-2.19-1.52-3.33.65-4.41,2-8.31,10.2-18.17,17.68-32,17.7-10.22,0-19.19-3.16-26.16-11.07-3-3.36-6.08-6.62-9.31-9.74-2-1.9-3-3,.59-4.21,10.92-3.67,19.31-10.93,26.74-19.46,1.27-1.45,2.75-2.88.7-4.57s-3.4,0-4.59,1.41c-5.36,6.25-11.36,11.81-18.8,15.4-18,8.69-35.61,4.62-51.39-11.57-6.66-6.83-6.66-6.83-1.09-14.56,9.2-12.78,14.18-27.13,14-42.78a24.52,24.52,0,0,1,6.75-18c5.39,9.64,11.74,18.5,21.77,23.95,4.4,2.39,8.86,4.65,14,4.83,1.68,0,3.66.19,3.76-2.16.07-1.76-1.35-2.48-3-2.73-16.62-2.59-25.67-14.06-32.71-27.9a5.66,5.66,0,0,1-.62-4.33c5.14-16.33,1.34-31.15-7.49-45.16-.06-.09,0-.27.11-1,3.34,1.14,6.59,2.21,9.81,3.36,12,4.28,24.15,6.05,36.68,3.26,7-1.57,6.93-1.7,9.37,5.2,6,16.94,18.78,26.72,35.25,31.74a45.17,45.17,0,0,1,18.7,10.72c12,11.22,27.16,12.15,42.58,9.4,4.08-.73,6.07.19,8.41,3.62A36.3,36.3,0,0,0,698.23,548c13.71,3.54,27.62,6.06,41.46,9,8.48,1.78,15,7.85,20.61,14.22,9.52,10.81,15.63,23.21,13.76,38.15-1.23,9.82-6.84,17.49-13.54,24.37a81.64,81.64,0,0,1-15.13,12.2c-1.52,1-3.58,2-2.17,4.22s3.21.78,4.74-.11a72.61,72.61,0,0,0,24.93-24c.44-.69.86-1.38,1.33-2,.06-.09.29-.07.81-.17,1.09,4,2.13,8.09,3.29,12.13,1.12,3.88,3.75,6.21,7.26,8.34,14.45,8.79,25.09,20.39,25.48,38.51.22,10.56-4.13,19.6-10.1,28-.67.94-1.53,1.77-2.1,2.76-.79,1.38-1.15,3,.42,4,1.38.92,2.55.08,3.44-1,6.45-8,11.14-16.83,12.77-27.13,1.17-7.47.33-14.76-2.59-23.1,10.3,5.44,20.05,8.17,30.46,8.23a72.65,72.65,0,0,0,17.27-2c1.68-.4,4-.92,3.18-3.51-.73-2.43-2.64-1.83-4.53-1.39-18.56,4.35-35.51.36-51.16-10.07a13.61,13.61,0,0,1-2.69-2.91A58.72,58.72,0,0,0,788,639.89c-3.46-1.9-5-4.56-5.9-8a76.54,76.54,0,0,1-2.65-22.21c.75-25-11.52-42.26-31.89-54.82-7.32-4.51-16-3.93-24.06-5.83s-16-3.25-23.86-5.41c-15.5-4.27-26.5-20-26.31-37.16,0-2.37,1.79-6.4-2-6.56-4.35-.19-2.55,4.25-2.76,6.69a29,29,0,0,0,1.66,12.75c1.18,3.18.68,4.57-3,5.24-28.55,5.16-48.75-9.32-52.81-38.06-.25-1.81-.58-3.61-.83-5.42s-.57-4-3-3.77c-2.63.25-2.13,2.48-2,4.3a88,88,0,0,0,6.31,24.52,55.14,55.14,0,0,1-19.56-7.49c-31.32-19.15-25.31-62.16-.46-75.76,17.62-9.64,38.19-7.38,53.14,11.06A56.8,56.8,0,0,1,659,455.58c.82,3.11.11,4.89-2.84,6.39-7.3,3.68-12.85,9.43-17.23,16.23-.73,1.14-3.62,3-.42,4.85,2.6,1.5,3.23-.53,4.46-2.23,10.48-14.39,24-22.48,42.39-19.14,11.25,2.05,20.62,8.16,29.07,15.58,7.67,6.73,11.28,15.42,11,25.67-.13,4.35-2.06,8-4.41,11.48-1.1,1.6-2.45,3.14-.32,4.65s3.4-.4,4.43-1.82a26.41,26.41,0,0,0,5.28-18.72c-.16-1.63-.87-3.61,2.13-4,15.09-2.06,34.26.68,43.68,15.33,6.41,10,6.75,21.39,5.88,32.77-.36,4.76-1.06,9.58-3.34,14-.87,1.69-1,4,1.28,4.65,2.06.64,2.7-1.53,3.36-3,3.66-8.08,4.17-16.71,3.93-25.37-.1-3.37.18-4.5,3.92-3.07,9.3,3.56,19.07,4.45,28.95,3.65a12.12,12.12,0,0,1,8.35,2.29c23.67,16.26,28.14,40.92,12.1,67.29-1.12,1.84-2.32,3.63-3.51,5.43-.92,1.38-1.35,2.92.12,4s2.79.3,3.84-1.08A59.75,59.75,0,0,0,848.32,599c2.92-6.71,5.84-13.36,6.23-20.87.25-4.89,1.2-5.27,5.22-2.6,12.1,8,20.92,18.29,20.58,33.67-.26,11.83-5.45,22.05-12.45,31.38-1.39,1.87-2.92,3.63-4.32,5.5-.94,1.26-1.61,2.72-.23,4s2.73.49,3.83-.71c.56-.62,1.15-1.21,1.69-1.84,4.82-5.58,4.87-5.61,8.25.79a62.54,62.54,0,0,1,7,20.72c1.3,9.6-.65,18.47-7.06,26.09-7.26,8.66-16.7,13.81-27.46,17.6,1-6.81,2-13.17,2.84-19.55.23-1.82.91-4.6-2.13-4.6-2.56,0-2.57,2.53-2.78,4.54C846,708.2,842.64,722.6,832,734.21c-9.6,10.43-21.85,13.54-35.39,12.26a67.06,67.06,0,0,1-23.83-6.79c-14-7-18.34-19.76-19.51-34.21a4.13,4.13,0,0,1,0-.5c.14-4-.67-8.33.69-11.84,1.51-3.87,6.7-2.52,10.12-4a59.38,59.38,0,0,0,16.77-10.61c1.22-1.09,3.56-2.14,1.78-4.38s-3.62-.88-5.1.54c-5.53,5.26-11.81,9.2-19.29,11-19.64,4.66-35.13-3.54-48.77-16.38a41.51,41.51,0,0,1-13.36-29.71c-.18-4.79.91-7,5.82-8.11,15.83-3.74,26.43-13.35,30.84-29.3.56-2.05.8-4.43-1.57-5-2.8-.73-2.92,2-3.4,3.88-3.43,13.33-12.28,21.52-25.1,25.24-29,8.41-54.34-4.94-64.4-33.38-1.45-4.12-.83-5.46,3.83-5.6a111.2,111.2,0,0,0,25.61-3.87c1.75-.47,4.62-.5,3.81-3.42-.7-2.55-3-1.91-5-1.44-11.69,2.69-23.42,4.36-35.55,3.64-30.13-1.77-49.6-21.05-56.38-49.14-1-4-1.39-8.18-2.06-12.28-.28-1.7-.71-3.68-2.74-3.58-2.42.13-2.44,2.15-2.26,4.15a83.61,83.61,0,0,0,9.54,32.3c.69,1.28,1.93,2.38,1.5,4.07l0,.07c-3.14-.29-6.27-.72-9.41-.83-7.22-.26-13.28,2.62-18.47,7.42-.86.8-3.06,1.8-1.16,3.46,1.17,1,2.58,1.9,4.38.28,11.22-10.14,23.62-7.28,34.24,1.58,11.41,9.5,24,15.73,38.93,17,3.31.29,4.91,1.85,6,5.22,6.17,18.34,17,32.61,36.05,39.19,6.07,2.09,12.36,2.45,18.68,2.38,2.41,0,3.66.35,3.58,3.24-.66,23,12.09,37.45,30.75,48,7.14,4,14.77,7,23.15,7,3,0,3.56,1.3,3.33,4-1.11,13.07.43,25.6,8.21,36.66,1.89,2.69,0,3.45-1.78,4.47-15.84,9.13-31.37,8.32-46.51-1.61a78.94,78.94,0,0,1-19.57-19c-.74-1-2-1.89-1.43-3.48Z" transform="translate(88.17 31.05)"/><path class="cls-15" d="M578.53,557.73l1.16.41c-.09.13-.17.33-.29.35-.55.12-.91-.07-.92-.69Z" transform="translate(88.17 31.05)"/><path class="cls-15" d="M687.49,712.79l-.42,0,.28-.38.14.4Z" transform="translate(88.17 31.05)"/><path class="cls-16" d="M856.17,568.2c12.79-8.36,22.9-18.51,29.73-31.66,1.6-3.08,3.66-6.27,4-9.57.68-6.19,4.17-9.77,8.94-12.9,13.25-8.68,27-16,43.47-15.33,7.07.28,13.72,2,19.64,6.18,1.59,1.11,3.68,3.37,5.43.34,1.56-2.7-1-3.9-2.72-5-12.45-7.73-25.79-8.83-39.71-5-1.72.47-3.42,1-5.67,1.7.93-3.95,1.71-7.44,2.59-10.91,3.41-13.56.65-25.7-8.4-36.36-1.32-1.55-2.93-4-5.3-2s-.36,3.81,1.13,5.39c13,13.92,9.14,33.55,1.9,46.46a7.08,7.08,0,0,1-2.54,2.27c-4.81,2.94-9.66,5.81-14.79,8.88-1-1.76-.46-3.72-.56-5.6A82,82,0,0,0,888,480.26c-.74-1.95-1.54-4.13-4.11-3.19-2.73,1-1.58,3.17-.87,5.05,5.6,14.78,6.8,29.72,1.33,44.81-5.16,14.25-14.89,25-26.75,33.94-1.23.94-2.59,1.82-3.34-.64-3.56-11.61-11.4-20-21.34-27.39,6.65-3.06,12.84-5.73,18.2-10.06,14.39-11.65,22.32-26.49,23-45a6.57,6.57,0,0,1,2.6-5.49c9.83-8,18.1-17.16,21.18-29.95.43-1.8,1.93-2,3.35-2.55,22.5-8.12,42.5-3.9,60.89,11.24,25.23,20.77,26.57,62.1-2.54,86.9-2.53,2.16-5.1,4.27-7.75,6.29-1.51,1.16-3.32,2.27-1.91,4.37,1.56,2.35,3.47,1.11,5.14-.12,9.48-7,17.72-15.11,23.59-25.43.31-.55.68-1,1.37-2.12,2.42,7.76,4.67,14.94,8,21.77,12.22,24.75,37.64,31.68,60.77,22.59,7.74-3.05,15.58-4.49,23.89-2.62,6.88,1.54,12.18,5.07,15.75,11.17,1.11,1.91,2.33,4.3,4.9,2.57s.68-3.86-.43-5.66c-5.61-9.15-14.25-13.07-24.54-14-1.49-.14-3,0-4.49-.09-.12,0-.24-.14-.76-.48a68.42,68.42,0,0,0,16.38-26.28c1.1-3.12,2-6.33,2.88-9.51.5-1.69.79-3.41-1.39-4.13-2.59-.86-3.22,1.19-3.66,2.93a83,83,0,0,1-8.61,21.13c-11.53,20-32.41,28.16-54.19,20.75-10-3.41-16.44-11-21.33-20a82,82,0,0,1-8.77-27.44,17.14,17.14,0,0,1,.14-6.42c7.15-31.59-7.32-56.92-34.55-70.43-14.7-7.29-30.3-8.23-46-3.52-3.46,1-4.53.86-4.66-3.09-.3-8.95-3.79-16.87-9.49-23.66-2.17-2.57-2-4-.06-6.66,10.31-14.09,18.07-29.49,21.48-46.72,4-20.26.21-38.69-14-54.35-1.47-1.62-3.05-3.07-5-1.2s-.26,3.27,1,4.67c15.14,16.76,16.93,36.13,11,56.95-3.7,13.08-10.17,24.81-17.67,36.07-2.15,3.24-3.51,4-6.56.84-5.24-5.36-11.64-9.32-18-13.25-1.83-1.12-3.81-2.09-5.12.34-1.19,2.21.81,3.11,2.39,4.13,9,5.78,17.64,11.83,24.56,20.12,13.29,15.94,13.69,32.58,1,49a71.17,71.17,0,0,1-9.62,10.09c-1.59,1.4-2.53,1.89-3.4-.67-5-14.72-15.87-24.2-28.69-31.94-1.85-1.12-3.78-2.26-5.21-.09-1.58,2.4.69,3.36,2.42,4.46,8.47,5.36,16.42,11.34,21.91,20,9.22,14.49,8.43,31.51-2.09,46.76-14.91,21.58-37.58,29.54-62.92,22.1-1.76-.52-3.53-1-5.29-1.44-3.08-.86-5.28-2.3-5.69-6-.76-7-5.89-12.4-6.46-19.72-1.82-23.3,1.73-44.79,18.83-62.21,12.06-12.28,27.5-17.71,43.94-20.9,2.77-.54,5.59-.77,8.39-1.19,2.08-.31,4.9-.12,4.61-3.24s-2.94-2.34-5.07-2.11A124.52,124.52,0,0,0,821,417.2c-.77.28-1.45.87-2.62-.19,3.62-5.7,7.86-11.13,11.16-17.17,10.2-18.68,14.57-38.48,14.11-59.82-.38-17.57,7.11-28.19,22.38-34.25A66.19,66.19,0,0,1,876.12,303c2-.44,4.45-.53,4-3.25s-2.79-2.27-4.86-1.92c-14.34,2.4-26.19,8.48-32.94,22.17a15.69,15.69,0,0,1-1.5,2c-2.92-12.15-6.36-23.52-11.32-34.41-12.11-26.6-32-45.36-58-58a130.35,130.35,0,0,0-19.74-8.1,3.13,3.13,0,0,1-2.32-1.65c-4.46-10-13.14-16.08-21.54-22.28-2.81-2.07-2.63-3,0-4.89,10.06-7.28,21.53-8.35,33.32-7.63,7.31.44,14.67,1.56,21.27,4.75,16.62,8,25.12,21.58,26,40,0,.83,0,1.66,0,2.49,0,1.88.6,3.43,2.75,3.37s2.68-1.8,2.64-3.56c-.25-11-2.7-21.42-9-30.66-1.11-1.61-2.28-3.18-3.72-5.19,5-1.47,9.59-1,14-.42,20.87,2.57,36.33,13.05,45.35,32.27,4.68,10,8.33,20.36,9.15,31.44a40.11,40.11,0,0,1-8.86,28.82c-.41.52-.81,1.06-1.21,1.59-1.1,1.46-1.79,3.09,0,4.33,1.65,1.12,3,.23,4.31-1.18,6.82-7.61,10-16.81,11.06-26.69.29-2.6.91-3.74,3.18-4.78,17.74-8.16,33.42-3.68,44.17,12.62,5.4,8.2,8.86,17.46,14.93,25.36,12.15,15.81,27.19,20.76,46.14,14.25,8.82-3,17.63-5.83,27.08-6.37,15.14-.86,23.81,8.46,28,18.88,5.7,14,6.86,28.9,5.9,43.68-1.25,19.29,6.89,33.28,21.68,44.32a80.22,80.22,0,0,0,9.3,5.72c13.81,7.54,20,21.48,16.58,37.1-3.22,14.78-9.41,27.74-23.95,34.13-9.88,4.35-20.48,6.88-31.59,5.2-12.08-1.82-19.61-9.73-26.09-19.12-1.22-1.78-2.24-3.7-3.43-5.51-1-1.5-1.95-3.6-4.21-2.25-2,1.22-1.36,3.17-.38,4.83,4.34,7.34,9.18,14.27,15.85,19.74,1.11.91,2.68,1.35,3.35,3.15a36.74,36.74,0,0,0-18.53,13.58c-1.28,1.78-3.65,3.86-.77,5.92s3.51-.93,4.77-2.57c6.88-8.95,15.52-12.47,27.23-12.1,21.44.68,42.11-2.34,55-23a55.46,55.46,0,0,0,8.72-32.72c-.75-14.36-7.9-24.93-20.86-31.68-13.86-7.22-24.29-17.5-27.12-33.66-1.23-7.08.1-14.25-.17-21.39-.44-11.86-1.65-23.55-6.13-34.68-7.77-19.3-22.61-25.88-42.54-21.93A94.32,94.32,0,0,0,983.77,308c-20.3,8.25-34.47.91-45.47-15.9-5.1-7.81-8.16-16.8-14.06-24.13-12.15-15.09-26.59-19.28-44.75-12.64-3.7,1.35-4.62,1-5.51-3.09-2.08-9.75-4.67-19.5-9.75-28.19-2.31-3.95-.6-5,2.57-6.24,13.38-5.39,27-6.19,41.08-3.07,22.51,5,42,15.15,57.61,32.4a36.24,36.24,0,0,1,7.8,12.69c1.07,3.18,2.93,3.63,5.73,2.88a84.5,84.5,0,0,1,49.61,1.2,73.07,73.07,0,0,1,28.46,17.82c12.06,11.94,20.39,26.37,25.9,42.24,5.19,14.93,2.16,29.17-5.84,42.55-1,1.74-4.14,3.89-1.2,5.87,3.3,2.23,4.49-1.26,5.82-3.44,8.32-13.69,11.17-28.27,7.08-44-.24-.92-.41-1.86-.65-3,29.63,10.82,51.6,35.48,48.66,66.89-1.45,15.4-6.52,29.38-14.39,42.51-.43.7-.83,1.42-1.26,2.13-.92,1.52-1.64,3.12.35,4.28,1.83,1.05,3,0,4.1-1.53,4-5.8,6.84-12.13,9.68-18.51,2.53-5.67,3.68-11.72,5.4-18,12.59,7.63,20.37,18.58,25.21,32,4.65,12.87,4.36,25.17-.41,38.34-8.62,23.83-25.7,36.61-49.36,42.29-2,.47-4.38.83-3.58,3.62.76,2.61,3.12,2,5.07,1.53,21.6-4.82,38.34-16.25,48.93-36a7.61,7.61,0,0,1,.84-1.2c.09-.11.3-.12,1-.36,4.19,10.1,6,20.48,3.69,31.29-4.18,19.27-18.3,29.32-35,36.61-5.47,2.39-11.31,3.92-16.93,6-2.09.76-5.94.38-4.73,4.18,1,3.12,3.85,1.54,6,.94,12.53-3.47,24.52-8.15,35.73-16.38,2,19.26-1.14,36.12-15.43,49.25-11,10.08-23.81,17-38.59,19.72-16.92,3.08-32.22-1.05-45.88-11.39-1.86-1.4-3.62-2.94-5.45-4.38-1.34-1-2.78-1.28-4,.14s-.77,2.73.53,3.91c7.24,6.5,15.29,11.81,24.57,14.72,9.06,2.85,18.41,4.46,27.86,2.67,1.1,1.83-.43,2.35-1.1,3-16.52,17.07-35.9,23.75-59.34,16.8-11.63-3.45-23.22-6.79-33.87-12.79-9.87-5.57-15.49-14.8-21.25-24-1.2-1.91.19-2.66,1.09-3.76A88.47,88.47,0,0,0,996.5,581.1c1-2,2.51-4.15,0-5.68-2.88-1.73-3.42,1.06-4.49,2.93-9.77,17.11-22.66,30.48-42,37-12.4,4.18-24,1.16-35.68-2.07-10-2.74-19.63-6.18-27.31-13.54-1-1-2.81-2-2.35-3.58s2.57-1.1,3.93-1.32c20.07-3.25,37.33-11.7,50.85-27.19,1.29-1.48,3.24-3.12,1.16-5.07-2.38-2.25-3.89.14-5.26,1.7C922.4,579,905.78,586.58,886.8,589.72c-3.3.55-5.63,0-7.87-3.22C873.35,578.42,865.46,572.84,856.17,568.2ZM1016,415.74c-1.87.24-2.84.37-3.82.48-12.44,1.43-24,5.28-34.21,12.7-1.68,1.22-3.61,2.64-2,4.8s3.53.83,5.2-.44c8.31-6.3,17.92-9.41,28-11.23,20.4-3.67,37.08,4.68,46.11,23.07,3.94,8,5.46,16.72,6.22,25.54.18,2.07,0,4.35,2.93,4.13,2.62-.19,2.31-2.44,2.26-4.22a67,67,0,0,0-8-30.58c-6.56-12-16.18-20.06-29.89-22.71a11,11,0,0,1-5.8-2.63c-5.73-5.38-11-11.15-14.87-18-8.92-16-7.33-30.42,7.13-42.66a127.13,127.13,0,0,1,11.8-8.36c1.39-.93,3-2,1.55-4-1.22-1.73-2.82-1.33-4.38-.43-11.6,6.69-21.54,14.92-26.17,28.5-2-2.7-3.8-5.25-5.72-7.71C983,350.18,971.91,343.61,956,344.42c-11.11.57-21.68-3.59-26.52-15.49-.81-2-2.05-2.68-3.81-2.06s-2,2-1.3,3.69c.61,1.36,1,2.81,1.73,4.12,3,5.51,8,8.71,13.34,11.51-1,1.43-2.39,1.52-3.58,2-9,3.94-16.65,9.67-22.28,17.86-1.15,1.69-3.43,3.49-.75,5.48s3.81-.6,5-2.27c4.79-6.6,10.63-12.14,18.24-15.07,13-5,26.66-7.76,39.34-.25A45.9,45.9,0,0,1,997.75,385a54.29,54.29,0,0,0,2.65,8C1003.64,401.59,1009.62,408.3,1016,415.74Z" transform="translate(88.17 31.05)"/><path class="cls-17" d="M623.77,328.05c-3.94,15.84-1.66,31,4.93,45.7a19.22,19.22,0,0,0,1.33,2.69c1.13,1.72,2,4.6,4.74,2.94,2.24-1.35.78-3.48-.1-5.3a71.45,71.45,0,0,1-7.57-31.67c.08-24.47,21.42-48.5,54-37.4,20.83,7.09,31.78,28.36,26.06,48.82-2.17,7.78-6.77,14.31-12.2,20.26-6.38,7-13.07,13.68-18.21,21.76-8,12.63-9.27,25.73-3.53,39.47,2.93,7,6.16,13.92,9.48,21.37-5.76.41-11.32.15-16.74,1.69-2.12.6-1.91-2.27-2.33-3.71-4.43-15.33-12.95-27.58-26.84-35.8-22.21-13.12-53.69-2.13-63.07,21.83-2.76,7-4.9,14.1-4.6,21.72.1,2.56-1.57,3.47-3.46,4.28-8.84,3.79-17.45,3.05-26-1.09-25-12.13-33.19-32.59-23.75-58.74,4.6-12.76,12-23.2,25.52-26.47,18.16-4.4,35.66-2.33,50.72,10.19,1.44,1.2,2.85,2.86,4.67,1s.3-3.45-1-4.73c-5-4.93-11.28-7.46-17.69-9.83-1-.39-2.3-.43-3.2-1.79,6.73-2.52,12.9-5.66,17.53-11.09a29.31,29.31,0,0,0,7.41-17.07c.13-1.62,0-3.14-1.94-3.43s-2.5,1.22-3,2.7c-5.91,18.25-16.47,26.32-36,26.39-12.74,0-24.44,2.39-34.25,11-21.8,19.24-23.16,54.92-2.92,76.14.9.94,2.43,2,1.44,3.28-1.14,1.49-2.32-.29-3.43-.76-6.11-2.54-11.59-6.09-17.09-9.83-8.93-6.06-19.3-8.82-30.06-9.68a7.31,7.31,0,0,1-4.82-2.1c-11.29-10.75-13.58-25.88-6.6-39.73,5.49-10.91,13.38-19.7,22.27-27.78,1.42-1.29,3.89-2.28,2.1-4.69-2-2.66-3.86-.63-5.43.76-7.87,7-15.21,14.43-20.36,23.73a7.45,7.45,0,0,1-5.8,3.95c-17.62,3.17-33.08-6-36.8-23.1-2.72-12.49-5.62-24.79-4-37.82,2.34-18.77,12.6-31,29.6-38.09,11.71-4.88,24.08-6.3,36.66-6.19A8.28,8.28,0,0,1,486,295c2.47,2.92,5.14,5.67,7.74,8.48,1.24,1.35,2.67,2.15,4.36.83,2-1.56.76-3.07-.47-4.17-4.89-4.35-7.76-10.9-14.49-13.26-1.77-.62-1.52-2.41-1.77-3.83-2.87-15.87,2.78-28.51,16.25-36.61,13.72-8.25,28.47-14.65,45.17-13.54A56.64,56.64,0,0,1,569,241.58c5.34,3.29,5.1,3.13,6.57-2.86,4.44-18.11,17.68-34.32,38.64-37.79,7.49-1.24,15-2.73,22.76-1.54,21.81,3.35,34,15.49,37.34,37.33.33,2.15-.7,6.14,3.11,5.55s2.14-4.41,1.77-6.69c-2.52-15.49-9.15-28.42-24.52-36.23a62.86,62.86,0,0,1,31.21-9.47c23.45-.7,41.66,10.4,55.19,28,7.61,9.88,10.27,23,8.55,36.12-.23,1.82-1.48,4.44,1.56,4.84,2.5.32,3.07-2.07,3.49-4.08,1.49-7.2.06-14.21-1.53-21.19-.4-1.76-1-3.47-1.75-5.87,6.14.69,11,3.71,15.9,6,36.28,17.15,57.25,46.36,66.19,84.89,2.61,11.22,4.7,22.5,4,34.09-1.79,27.63-14,50.53-32.55,70.39-7.35,7.88-15.9,14.65-21.37,24.21-8.37,14.61-10.91,30.45-10.22,47,.07,1.61,0,3.23,0,4.9C761,494,749.88,487.73,743.13,475.42c-8-14.66-7.23-29.53-1.63-44.37A97.16,97.16,0,0,1,767.87,393c28.51-25.83,31.53-60.41,9-92.28C768,288.17,757.78,277.11,744,270.1c-23.63-12-47.57-10.44-71.32-.31-3.45,1.46-5.42,1.44-8.14-1.23-9.12-9-19.61-16.09-32-19.45C614.82,244.33,599,249,584.78,260a68,68,0,0,0-15,15.29c-2.62,3.85-5.53,4.34-9.57,4-10.66-.77-20.46,1.62-28.85,8.63a49.16,49.16,0,0,0-14.25,19.55c-4.53,11.46-14,16.56-24.07,20.89-9.94,4.27-20.56,5.29-31.34,4.4a29.77,29.77,0,0,0-3-.08c-1.49,0-3.27-.1-3.29,2.07s1.37,2.84,3.26,3c11.35,1,22.49.29,33.4-3.36,6-2,11.35-5.36,17.53-8.83-1.29,7.25-2.51,13.73-3.58,20.23-.59,3.59-1.06,7.22-1.35,10.85-.14,1.75-.35,4.17,2.16,4.36,2.76.21,2.64-2.05,2.87-4.17,1.75-16.59,5-32.74,12.36-48,8.68-18,22.42-26.42,42.45-24.52,9.63.92,19.23,1.69,27.82,6.82a27.36,27.36,0,0,1,8,6.68c1.27,1.65,2.78,4.17,5.16,2.1s-.19-3.87-1.4-5.44c-6.64-8.62-16.3-11.54-26.34-13.72-1.4-.31-3.45.4-4.09-1.13-.77-1.85,1.33-2.82,2.35-4,9.12-10.49,19.6-19,33.54-22.18,14.86-3.42,27.85,1.08,40,9.3,9.63,6.5,17.37,14.94,24.91,23.61,1.29,1.47,2.52,3.75,4.77,1.93s.15-3.54-.87-5.15a9.12,9.12,0,0,0-.6-.79c-6-7.37-6-7.37,3-10.4,18.16-6.12,36.33-7.74,54.59-.35,14,5.65,24.81,15.26,33.74,27.14,10.39,13.84,18.13,28.81,17.51,46.74-.68,19.49-11.19,33.51-24.92,46.39-18.75,17.59-30,39.15-29.17,65.68.33,10.94,5.09,20.17,11.88,28.51.76.93,2.58,1.75,1.56,3.2-.47.67-2.12.52-3.23.73-.16,0-.34,0-.5,0-8.89,1.46-14.75-.44-19.63-9.76-5.06-9.67-15.7-15.06-26-19.1-4.81-1.88-8-4.43-10.13-9.27-4.14-9.6-9.59-18.63-11.23-29.22-1.37-8.9,1.22-16.67,5.82-24,4.08-6.54,9.28-12.14,14.57-17.66,7-7.24,12.92-15,16.12-24.8,2.22-6.8,16.24-13.72,24.76-13.13,9.12.62,16.35,5,23,10.65,1.61,1.37,3.42,3.61,5.42,1.11,1.71-2.13-.5-3.62-2-4.87-10-8.38-21-14.1-34.67-11.24-5,1-9.21,3.59-14.08,6.6-.16-10-3.33-18.42-7.6-26.74-6.11-11.87-16.76-16.72-28.57-19.74-15.45-4-29.68-1-42,9.39-3,2.55-5.3,6-8.28,8.59-15,13.08-33.46,15.25-51.55,6.14-3.7-1.86-7.25-4-10.87-6-1.76-1-3.82-2.39-5.26-.09s.83,3.17,2.36,4.14c16.14,10.31,33.11,16.25,52.36,9.69,2.82-1,5.52-2.28,8.28-3.44C623.28,327.54,623.52,327.8,623.77,328.05Z" transform="translate(88.17 31.05)"/><path class="cls-17" d="M623,327.28l1.14-.25-.4,1Z" transform="translate(88.17 31.05)"/></g><g id="glow"><path class="cls-18" d="M1690.09,924.05,1323.83-3l-1394-28-18,2016,756-118,696.33-293.17s1.83-52,8.34-67.33c0-.08,14.58-20.25,51.91-37.92,0,0,9.09-13.84,12.86-15.22,6.53-2.39,12.72-7,33.72-51.2,1.7-3.57,20.15-54.66,45.84-55.16,0,0,5.35-.61,13.51,3.53Z" transform="translate(88.17 31.05)"/></g></svg>